<svg width="22" height="22" viewBox="0 0 22 22" fill="none" xmlns="http://www.w3.org/2000/svg">
    <path
        d="M18.7851 12.7143H12.7139V18.7857C12.7139 19.1078 12.586 19.4166 12.3583 19.6443C12.1306 19.8721 11.8217 20 11.4997 20C11.1776 20 10.8688 19.8721 10.6411 19.6443C10.4134 19.4166 10.2854 19.1078 10.2854 18.7857V12.7143H4.21424C3.8922 12.7143 3.58336 12.5864 3.35564 12.3586C3.12793 12.1309 3 11.822 3 11.5C3 11.178 3.12793 10.8691 3.35564 10.6414C3.58336 10.4136 3.8922 10.2857 4.21424 10.2857H10.2854V4.21429C10.2854 3.89224 10.4134 3.58338 10.6411 3.35566C10.8688 3.12793 11.1776 3 11.4997 3C11.8217 3 12.1306 3.12793 12.3583 3.35566C12.586 3.58338 12.7139 3.89224 12.7139 4.21429V10.2857H18.7851C19.1071 10.2857 19.416 10.4136 19.6437 10.6414C19.8714 10.8691 19.9994 11.178 19.9994 11.5C19.9994 11.822 19.8714 12.1309 19.6437 12.3586C19.416 12.5864 19.1071 12.7143 18.7851 12.7143Z"
        fill="black" />
</svg>
    