<svg width="8" height="15" viewBox="0 0 8 15" fill="none" xmlns="http://www.w3.org/2000/svg">
<path d="M1.17032 14.5013C1.31972 14.5018 1.46733 14.4688 1.60231 14.4048C1.73729 14.3407 1.85621 14.2473 1.95032 14.1313L6.78032 8.13125C6.92741 7.95232 7.00781 7.72788 7.00781 7.49625C7.00781 7.26463 6.92741 7.04018 6.78032 6.86125L1.78032 0.861252C1.61059 0.657036 1.36667 0.528611 1.10225 0.504231C0.837822 0.479852 0.574541 0.561514 0.370325 0.731252C0.166108 0.900991 0.037684 1.1449 0.0133042 1.40933C-0.0110755 1.67375 0.0705857 1.93704 0.240324 2.14125L4.71032 7.50125L0.390325 12.8613C0.268042 13.008 0.190365 13.1868 0.166485 13.3763C0.142606 13.5659 0.173522 13.7583 0.255579 13.9308C0.337635 14.1034 0.467394 14.2488 0.629505 14.3499C0.791615 14.4509 0.979291 14.5035 1.17032 14.5013Z" fill="#BFC0C8"/>
</svg>
