<svg width="16" height="15" viewBox="0 0 16 15" fill="none" xmlns="http://www.w3.org/2000/svg">
    <path
        d="M11.7497 13.5V1.5C12.1622 1.5 12.5154 1.647 12.8094 1.941C13.1034 2.235 13.2502 2.588 13.2497 3V12C13.2497 12.4125 13.1027 12.7657 12.8087 13.0597C12.5147 13.3537 12.1617 13.5005 11.7497 13.5ZM1.99996 15C1.58747 15 1.23423 14.853 0.940239 14.559C0.646247 14.265 0.499501 13.912 0.500001 13.5V1.5C0.500001 1.0875 0.646997 0.734251 0.940989 0.440251C1.23498 0.146251 1.58797 -0.000498727 1.99996 1.27335e-06H8.74978C9.16226 1.27335e-06 9.5155 0.147001 9.8095 0.441001C10.1035 0.735001 10.2502 1.088 10.2497 1.5V13.5C10.2497 13.9125 10.1027 14.2657 9.80875 14.5597C9.51475 14.8537 9.16176 15.0005 8.74978 15H1.99996ZM14.7496 12V3C15.0621 3 15.3278 3.1095 15.5468 3.3285C15.7658 3.5475 15.8751 3.813 15.8746 4.125V10.875C15.8746 11.1875 15.7651 11.4532 15.5461 11.6722C15.3271 11.8912 15.0616 12.0005 14.7496 12ZM1.99996 13.5H8.74978V1.5H1.99996V13.5Z"
        fill="white" />
</svg>
    