<svg width="14" height="15" viewBox="0 0 14 15" fill="none" xmlns="http://www.w3.org/2000/svg">
    <g clip-path="url(#clip0_5572_100850)">
        <path
            d="M3.9711 0.5C4.10106 0.5 4.22569 0.551625 4.31758 0.643518C4.40948 0.73541 4.4611 0.860044 4.4611 0.99V1.9063H9.723V0.9963C9.723 0.866344 9.77462 0.74171 9.86652 0.649818C9.95841 0.557925 10.083 0.5063 10.213 0.5063C10.343 0.5063 10.4676 0.557925 10.5595 0.649818C10.6514 0.74171 10.703 0.866344 10.703 0.9963V1.9063H12.6C12.9712 1.9063 13.3272 2.0537 13.5897 2.3161C13.8522 2.5785 13.9998 2.93442 14 3.3056V13.1007C13.9998 13.4719 13.8522 13.8278 13.5897 14.0902C13.3272 14.3526 12.9712 14.5 12.6 14.5H1.4C1.02882 14.5 0.672829 14.3526 0.410298 14.0902C0.147767 13.8278 0.000185591 13.4719 0 13.1007L0 3.3056C0.000185591 2.93442 0.147767 2.5785 0.410298 2.3161C0.672829 2.0537 1.02882 1.9063 1.4 1.9063H3.4811V0.9893C3.48129 0.859465 3.53299 0.735012 3.62487 0.64327C3.71674 0.551529 3.84126 0.5 3.9711 0.5ZM0.98 5.9194V13.1007C0.98 13.1559 0.990864 13.2105 1.01197 13.2614C1.03308 13.3124 1.06401 13.3587 1.10302 13.3977C1.14202 13.4367 1.18832 13.4676 1.23927 13.4887C1.29023 13.5098 1.34484 13.5207 1.4 13.5207H12.6C12.6552 13.5207 12.7098 13.5098 12.7607 13.4887C12.8117 13.4676 12.858 13.4367 12.897 13.3977C12.936 13.3587 12.9669 13.3124 12.988 13.2614C13.0091 13.2105 13.02 13.1559 13.02 13.1007V5.9292L0.98 5.9194ZM4.6669 10.7333V11.8995H3.5V10.7333H4.6669ZM7.5831 10.7333V11.8995H6.4169V10.7333H7.5831ZM10.5 10.7333V11.8995H9.3331V10.7333H10.5ZM4.6669 7.9494V9.1156H3.5V7.9494H4.6669ZM7.5831 7.9494V9.1156H6.4169V7.9494H7.5831ZM10.5 7.9494V9.1156H9.3331V7.9494H10.5ZM3.4811 2.8856H1.4C1.34484 2.8856 1.29023 2.89646 1.23927 2.91757C1.18832 2.93868 1.14202 2.96961 1.10302 3.00862C1.06401 3.04762 1.03308 3.09392 1.01197 3.14487C0.990864 3.19583 0.98 3.25044 0.98 3.3056V4.9401L13.02 4.9499V3.3056C13.02 3.25044 13.0091 3.19583 12.988 3.14487C12.9669 3.09392 12.936 3.04762 12.897 3.00862C12.858 2.96961 12.8117 2.93868 12.7607 2.91757C12.7098 2.89646 12.6552 2.8856 12.6 2.8856H10.703V3.5359C10.703 3.66586 10.6514 3.79049 10.5595 3.88238C10.4676 3.97428 10.343 4.0259 10.213 4.0259C10.083 4.0259 9.95841 3.97428 9.86652 3.88238C9.77462 3.79049 9.723 3.66586 9.723 3.5359V2.8856H4.4611V3.5296C4.4611 3.65956 4.40948 3.78419 4.31758 3.87608C4.22569 3.96798 4.10106 4.0196 3.9711 4.0196C3.84114 4.0196 3.71651 3.96798 3.62462 3.87608C3.53272 3.78419 3.4811 3.65956 3.4811 3.5296V2.8856Z"
            fill="#975EFF" />
    </g>
    <defs>
        <clipPath id="clip0_5572_100850">
            <rect width="14" height="14" fill="white" transform="translate(0 0.5)" />
        </clipPath>
    </defs>
</svg>
    