<svg width="18" height="18" viewBox="0 0 18 18" fill="none" xmlns="http://www.w3.org/2000/svg">
    <g clip-path="url(#clip0_6508_5479)">
        <path
            d="M18.0008 8.4347C17.8924 6.67971 17.2727 4.99483 16.2182 3.58776C15.1638 2.1807 13.7206 1.11297 12.0666 0.516192C10.4127 -0.0805809 8.62022 -0.180304 6.91027 0.229318C5.20031 0.638939 3.6476 1.54 2.44356 2.82141C1.23952 4.10282 0.436777 5.70857 0.134303 7.44069C-0.168171 9.17281 0.0428439 10.9556 0.741334 12.5692C1.43982 14.1829 2.59525 15.5568 4.06518 16.5218C5.5351 17.4867 7.25526 18.0003 9.0136 17.9994H14.2508C15.2451 17.9985 16.1984 17.603 16.9014 16.9C17.6044 16.197 17.9999 15.2437 18.0008 14.2494V8.4347ZM16.5008 14.2494C16.5008 14.8462 16.2638 15.4185 15.8418 15.8404C15.4199 16.2624 14.8476 16.4994 14.2508 16.4994H9.0136C7.9553 16.499 6.90898 16.2754 5.94287 15.8434C4.97676 15.4114 4.11255 14.7806 3.4066 13.9922C2.69723 13.2042 2.16454 12.2735 1.84427 11.2628C1.52399 10.252 1.42352 9.18447 1.5496 8.1317C1.74867 6.47115 2.49474 4.92409 3.67018 3.73439C4.84562 2.54469 6.38357 1.78003 8.0416 1.56095C8.36502 1.52041 8.69064 1.49987 9.0166 1.49945C10.7645 1.49468 12.4582 2.10537 13.8008 3.22445C14.585 3.87615 15.2286 4.68031 15.6927 5.58817C16.1569 6.49603 16.4318 7.48868 16.5008 8.50595V14.2494Z"
            fill="#9798A3" />
        <path
            d="M6 6.75049H9C9.19891 6.75049 9.38968 6.67147 9.53033 6.53082C9.67098 6.39017 9.75 6.1994 9.75 6.00049C9.75 5.80158 9.67098 5.61081 9.53033 5.47016C9.38968 5.32951 9.19891 5.25049 9 5.25049H6C5.80109 5.25049 5.61032 5.32951 5.46967 5.47016C5.32902 5.61081 5.25 5.80158 5.25 6.00049C5.25 6.1994 5.32902 6.39017 5.46967 6.53082C5.61032 6.67147 5.80109 6.75049 6 6.75049Z"
            fill="#9798A3" />
        <path
            d="M12 8.24951H6C5.80109 8.24951 5.61032 8.32853 5.46967 8.46918C5.32902 8.60983 5.25 8.8006 5.25 8.99951C5.25 9.19842 5.32902 9.38919 5.46967 9.52984C5.61032 9.67049 5.80109 9.74951 6 9.74951H12C12.1989 9.74951 12.3897 9.67049 12.5303 9.52984C12.671 9.38919 12.75 9.19842 12.75 8.99951C12.75 8.8006 12.671 8.60983 12.5303 8.46918C12.3897 8.32853 12.1989 8.24951 12 8.24951Z"
            fill="#9798A3" />
        <path
            d="M12 11.25H6C5.80109 11.25 5.61032 11.329 5.46967 11.4697C5.32902 11.6103 5.25 11.8011 5.25 12C5.25 12.1989 5.32902 12.3897 5.46967 12.5303C5.61032 12.671 5.80109 12.75 6 12.75H12C12.1989 12.75 12.3897 12.671 12.5303 12.5303C12.671 12.3897 12.75 12.1989 12.75 12C12.75 11.8011 12.671 11.6103 12.5303 11.4697C12.3897 11.329 12.1989 11.25 12 11.25Z"
            fill="#9798A3" />
    </g>
    <defs>
        <clipPath id="clip0_6508_5479">
            <rect width="18" height="18" fill="white" />
        </clipPath>
    </defs>
</svg>
    