<svg width="22" height="28" viewBox="0 0 22 28" fill="none" xmlns="http://www.w3.org/2000/svg">
<path d="M11.143 19.1905C9.46325 19.1905 7.85232 18.5232 6.66457 17.3355C5.47682 16.1478 4.80955 14.5368 4.80955 12.8571C4.80955 11.1774 5.47682 9.56653 6.66457 8.3788C7.85232 7.19107 9.46325 6.52381 11.143 6.52381C12.8227 6.52381 14.4336 7.19107 15.6214 8.3788C16.8091 9.56653 17.4764 11.1774 17.4764 12.8571C17.4764 14.5368 16.8091 16.1478 15.6214 17.3355C14.4336 18.5232 12.8227 19.1905 11.143 19.1905ZM17.5036 7.78143L18.7883 6.49667C18.3812 6.03524 17.974 5.61905 17.5126 5.22095L16.2278 6.52381C14.8254 5.38381 13.0611 4.71429 11.143 4.71429C8.98333 4.71429 6.91213 5.57219 5.38502 7.09927C3.85792 8.62636 3 10.6975 3 12.8571C3 15.0168 3.85792 17.0879 5.38502 18.615C6.91213 20.1421 8.98333 21 11.143 21C15.6669 21 19.286 17.3538 19.286 12.8571C19.286 10.939 18.6164 9.17476 17.5036 7.78143ZM10.2382 13.7619H12.0478V8.33333H10.2382M13.8573 2H8.42865V3.80952H13.8573V2Z" fill="url(#paint0_linear_5130_91820)"/>
<circle cx="11" cy="26" r="2" fill="#975EFF"/>
<defs>
<linearGradient id="paint0_linear_5130_91820" x1="20.3305" y1="-5.30871" x2="3.83004" y2="22.5958" gradientUnits="userSpaceOnUse">
<stop stop-color="#CE1B69"/>
<stop offset="1" stop-color="#FF328B" stop-opacity="0.71"/>
</linearGradient>
</defs>
</svg>
