<svg width="22" height="22" viewBox="0 0 22 22" fill="none" xmlns="http://www.w3.org/2000/svg">
<path d="M6.875 7.64453H13.6583C14.4742 7.64453 15.125 8.30451 15.125 9.11118V10.7337" stroke="#292D32" stroke-width="1.375" stroke-miterlimit="10" stroke-linecap="round" stroke-linejoin="round"/>
<path d="M8.42417 6.10547L6.875 7.64552L8.42417 9.19469" stroke="#292D32" stroke-width="1.375" stroke-miterlimit="10" stroke-linecap="round" stroke-linejoin="round"/>
<path d="M15.125 14.3548H8.34167C7.52584 14.3548 6.875 13.6948 6.875 12.8881V11.2656" stroke="#292D32" stroke-width="1.375" stroke-miterlimit="10" stroke-linecap="round" stroke-linejoin="round"/>
<path d="M13.5762 15.8939L15.1253 14.3539L13.5762 12.8047" stroke="#292D32" stroke-width="1.375" stroke-miterlimit="10" stroke-linecap="round" stroke-linejoin="round"/>
<path d="M11.0007 20.1654C16.0633 20.1654 20.1673 16.0613 20.1673 10.9987C20.1673 5.93609 16.0633 1.83203 11.0007 1.83203C5.93804 1.83203 1.83398 5.93609 1.83398 10.9987C1.83398 16.0613 5.93804 20.1654 11.0007 20.1654Z" stroke="#292D32" stroke-width="1.375" stroke-miterlimit="10" stroke-linecap="round" stroke-linejoin="round"/>
</svg>
