<svg width="32" height="32" viewBox="0 0 32 32" fill="none" xmlns="http://www.w3.org/2000/svg">
<g id="vuesax/bulk/wallet-add" opacity="0.6">
<g id="vuesax/bulk/wallet-add_2">
<g id="wallet-add">
<path id="Vector" d="M23.6653 9.40126C23.3453 9.34793 23.012 9.33461 22.6653 9.33461H9.33195C8.95862 9.33461 8.59862 9.36127 8.25195 9.41461C8.43862 9.04127 8.70529 8.69465 9.02529 8.37465L13.3586 4.02797C15.1853 2.21464 18.1453 2.21464 19.972 4.02797L22.3053 6.38791C23.1586 7.22791 23.612 8.29459 23.6653 9.40126Z" fill="#FFC7E8"/>
<path id="Vector_2" d="M6.66732 20C3.72065 20 1.33398 22.3867 1.33398 25.3333C1.33398 26.3333 1.61398 27.28 2.10732 28.08C3.02732 29.6267 4.72065 30.6667 6.66732 30.6667C8.61398 30.6667 10.3073 29.6267 11.2273 28.08C11.7207 27.28 12.0007 26.3333 12.0007 25.3333C12.0007 22.3867 9.61399 20 6.66732 20ZM8.65398 26.3066H5.66732H7.66732C5.66732 26.3066 8.21398 26.2933 7.66732 26.2933C7.12065 26.2933 7.66732 26.3066 5.66732 26.3066H4.68065C4.13398 26.3066 3.68065 25.8533 3.68065 25.3066C3.68065 24.76 4.13398 24.3066 4.68065 24.3066H5.66732C7.66732 24.3066 7.12065 24.3066 7.66732 24.3066C5.66732 24.3066 8.21398 24.3066 7.66732 24.3066H8.65398C9.20065 24.3066 9.65398 24.76 9.65398 25.3066C9.65398 25.8533 9.21398 26.3066 8.65398 26.3066Z" fill="#FF9CD6"/>
<g id="Vector_3">
<path d="M29.3327 15.9987V22.6654C29.3327 26.6654 26.666 29.332 22.666 29.332H10.1727C10.586 28.9854 10.946 28.5587 11.226 28.0787C11.7193 27.2787 11.9993 26.332 11.9993 25.332C11.9993 22.3854 9.61268 19.9987 6.66602 19.9987C5.06602 19.9987 3.63935 20.7053 2.66602 21.812V15.9987C2.66602 12.372 4.85268 9.83869 8.25268 9.41203C8.59935 9.35869 8.95935 9.33203 9.33268 9.33203H22.666C23.0127 9.33203 23.346 9.34535 23.666 9.39868C27.106 9.79868 29.3327 12.3454 29.3327 15.9987Z" fill="#FF9AD6"/>
<path d="M29.3327 15.9987V22.6654C29.3327 26.6654 26.666 29.332 22.666 29.332H10.1727C10.586 28.9854 10.946 28.5587 11.226 28.0787C11.7193 27.2787 11.9993 26.332 11.9993 25.332C11.9993 22.3854 9.61268 19.9987 6.66602 19.9987C5.06602 19.9987 3.63935 20.7053 2.66602 21.812V15.9987C2.66602 12.372 4.85268 9.83869 8.25268 9.41203C8.59935 9.35869 8.95935 9.33203 9.33268 9.33203H22.666C23.0127 9.33203 23.346 9.34535 23.666 9.39868C27.106 9.79868 29.3327 12.3454 29.3327 15.9987Z" fill="url(#paint0_linear_6550_108860)"/>
</g>
<path id="Vector_4" d="M29.3327 16.668H25.3327C23.866 16.668 22.666 17.868 22.666 19.3346C22.666 20.8013 23.866 22.0013 25.3327 22.0013H29.3327" fill="#FFC7E8"/>
</g>
</g>
</g>
<defs>
<linearGradient id="paint0_linear_6550_108860" x1="15.9993" y1="9.33203" x2="15.9993" y2="29.332" gradientUnits="userSpaceOnUse">
<stop stop-color="#FF9AD6"/>
<stop offset="1" stop-color="#FF14C5"/>
</linearGradient>
</defs>
</svg>
