<svg width="18" height="20" viewBox="0 0 18 20" fill="none" xmlns="http://www.w3.org/2000/svg">
<path d="M16.3333 3.58203C16.5764 3.58203 16.8096 3.67861 16.9815 3.85052C17.1534 4.02243 17.25 4.25558 17.25 4.4987C17.25 4.74181 17.1534 4.97497 16.9815 5.14688C16.8096 5.31879 16.5764 5.41536 16.3333 5.41536H15.4167L15.4139 5.48045L14.5587 17.4622C14.5257 17.9247 14.3188 18.3576 13.9794 18.6736C13.6401 18.9897 13.1936 19.1654 12.7299 19.1654H5.26917C4.80546 19.1654 4.35898 18.9897 4.01964 18.6736C3.68031 18.3576 3.47334 17.9247 3.44042 17.4622L2.58517 5.48136C2.58378 5.45939 2.58316 5.43738 2.58333 5.41536H1.66667C1.42355 5.41536 1.19039 5.31879 1.01849 5.14688C0.846577 4.97497 0.75 4.74181 0.75 4.4987C0.75 4.25558 0.846577 4.02243 1.01849 3.85052C1.19039 3.67861 1.42355 3.58203 1.66667 3.58203H16.3333ZM13.5806 5.41536H4.41942L5.27008 17.332H12.7299L13.5806 5.41536ZM10.8333 0.832031C11.0764 0.832031 11.3096 0.928608 11.4815 1.10052C11.6534 1.27242 11.75 1.50558 11.75 1.7487C11.75 1.99181 11.6534 2.22497 11.4815 2.39688C11.3096 2.56879 11.0764 2.66536 10.8333 2.66536H7.16667C6.92355 2.66536 6.69039 2.56879 6.51849 2.39688C6.34658 2.22497 6.25 1.99181 6.25 1.7487C6.25 1.50558 6.34658 1.27242 6.51849 1.10052C6.69039 0.928608 6.92355 0.832031 7.16667 0.832031H10.8333Z" fill="#1D1E22"/>
</svg>
