<svg width="18" height="18" viewBox="0 0 18 18" fill="none" xmlns="http://www.w3.org/2000/svg">
    <path
        d="M13.5 0H6C4.4625 0 3.1425 0.93 2.565 2.25H1.5C1.0875 2.25 0.75 2.5875 0.75 3C0.75 3.4125 1.0875 3.75 1.5 3.75H2.25V5.25H1.5C1.0875 5.25 0.75 5.5875 0.75 6C0.75 6.4125 1.0875 6.75 1.5 6.75H2.25V8.25H1.5C1.0875 8.25 0.75 8.5875 0.75 9C0.75 9.4125 1.0875 9.75 1.5 9.75H2.25V11.25H1.5C1.0875 11.25 0.75 11.5875 0.75 12C0.75 12.4125 1.0875 12.75 1.5 12.75H2.25V14.25H1.5C1.0875 14.25 0.75 14.5875 0.75 15C0.75 15.4125 1.0875 15.75 1.5 15.75H2.565C3.1425 17.07 4.47 18 6 18H13.5C15.57 18 17.25 16.32 17.25 14.25V3.75C17.25 1.68 15.57 0 13.5 0ZM3.75 14.25V3.75C3.75 2.5125 4.7625 1.5 6 1.5V16.5C4.7625 16.5 3.75 15.4875 3.75 14.25ZM15.75 14.25C15.75 15.4875 14.7375 16.5 13.5 16.5H7.5V1.5H13.5C14.7375 1.5 15.75 2.5125 15.75 3.75V14.25Z"
        fill="#9798A3" />
</svg>
    