<svg width="79" height="77" viewBox="0 0 79 77" fill="none" xmlns="http://www.w3.org/2000/svg">
<path d="M71.7812 32.0807V48.1224C71.7812 64.1641 65.2812 70.5807 49.0312 70.5807H29.5312C13.2812 70.5807 6.78125 64.1641 6.78125 48.1224V28.8724C6.78125 12.8307 13.2812 6.41406 29.5312 6.41406H45.7812" fill="#B4C2FF"/>
<path d="M27.2812 57C27.2812 57.8284 27.9528 58.5 28.7812 58.5C29.6097 58.5 30.2812 57.8284 30.2812 57L27.2812 57ZM29.8419 34.9393C29.2561 34.3536 28.3064 34.3536 27.7206 34.9393L18.1746 44.4853C17.5889 45.0711 17.5889 46.0208 18.1746 46.6066C18.7604 47.1924 19.7102 47.1924 20.296 46.6066L28.7813 38.1213L37.2665 46.6066C37.8523 47.1924 38.8021 47.1924 39.3879 46.6066C39.9736 46.0208 39.9736 45.0711 39.3879 44.4853L29.8419 34.9393ZM30.2812 57L30.2813 36L27.2813 36L27.2812 57L30.2812 57Z" fill="white"/>
<path d="M69.9609 33.3698H56.9609C47.2109 33.3698 43.9609 30.1615 43.9609 20.5365V7.70312L69.9609 33.3698Z" fill="white" stroke="#B4C2FF" stroke-width="1.5" stroke-linecap="round" stroke-linejoin="round"/>
</svg>
