<svg width="14" height="9" viewBox="0 0 14 9" fill="none" xmlns="http://www.w3.org/2000/svg">
<path fill-rule="evenodd" clip-rule="evenodd" d="M7.37629 8.04035C7.18876 8.22782 6.93445 8.33314 6.66929 8.33314C6.40412 8.33314 6.14982 8.22782 5.96229 8.04035L0.305288 2.38335C0.209778 2.2911 0.133596 2.18076 0.0811869 2.05876C0.0287779 1.93675 0.00119157 1.80553 3.77564e-05 1.67275C-0.00111606 1.53997 0.0241859 1.40829 0.0744668 1.2854C0.124748 1.1625 0.199001 1.05085 0.292893 0.956956C0.386786 0.863063 0.498438 0.78881 0.621334 0.738529C0.744231 0.688248 0.87591 0.662946 1.00869 0.6641C1.14147 0.665254 1.27269 0.69284 1.39469 0.745249C1.5167 0.797658 1.62704 0.87384 1.71929 0.96935L6.66929 5.91935L11.6193 0.96935C11.8079 0.787192 12.0605 0.686398 12.3227 0.688676C12.5849 0.690955 12.8357 0.796124 13.0211 0.981532C13.2065 1.16694 13.3117 1.41775 13.314 1.67995C13.3162 1.94215 13.2154 2.19475 13.0333 2.38335L7.37629 8.04035Z" fill="url(#paint0_linear_5768_105701)"/>
<defs>
<linearGradient id="paint0_linear_5768_105701" x1="14.1679" y1="-2.28599" x2="10.0783" y2="11.7215" gradientUnits="userSpaceOnUse">
<stop stop-color="#CE1B69"/>
<stop offset="1" stop-color="#FF328B" stop-opacity="0.71"/>
</linearGradient>
</defs>
</svg>
