<svg width="5" height="9" viewBox="0 0 5 9" fill="none" xmlns="http://www.w3.org/2000/svg">
<path d="M1.7 7.80026C1.38333 8.11692 1.021 8.18759 0.613 8.01226C0.204333 7.83759 0 7.52526 0 7.07526V1.92526C0 1.47526 0.204333 1.16292 0.613 0.988256C1.021 0.812923 1.38333 0.883589 1.7 1.20026L4.3 3.80026C4.4 3.90026 4.475 4.00859 4.525 4.12526C4.575 4.24192 4.6 4.36692 4.6 4.50026C4.6 4.63359 4.575 4.75859 4.525 4.87526C4.475 4.99192 4.4 5.10026 4.3 5.20026L1.7 7.80026Z" fill="url(#paint0_linear_6544_16902)"/>
<defs>
<linearGradient id="paint0_linear_6544_16902" x1="4.89502" y1="-1.87949" x2="-2.06734" y2="6.88267" gradientUnits="userSpaceOnUse">
<stop stop-color="#CE1B69"/>
<stop offset="1" stop-color="#FF328B" stop-opacity="0.71"/>
</linearGradient>
</defs>
</svg>
