<svg width="24" height="25" viewBox="0 0 24 25" fill="none" xmlns="http://www.w3.org/2000/svg">
<g clip-path="url(#clip0_5139_90091)">
<path d="M0 18.3372C0 19.0445 0.280952 19.7228 0.781049 20.2229C1.28115 20.723 1.95942 21.0039 2.66667 21.0039H21.3333C22.0406 21.0039 22.7189 20.723 23.219 20.2229C23.719 19.7228 24 19.0445 24 18.3372V15.0039H0V18.3372Z" fill="#138808"/>
<path d="M24 9.67188V6.33854C24 5.6313 23.719 4.95302 23.219 4.45292C22.7189 3.95283 22.0406 3.67188 21.3333 3.67188H2.66667C1.95942 3.67188 1.28115 3.95283 0.781049 4.45292C0.280952 4.95302 0 5.6313 0 6.33854L0 9.67188H24Z" fill="#FF9933"/>
<path d="M0 9.44922H24V15.2272H0V9.44922Z" fill="#F7F7F7"/>
<path d="M11.9997 15.0052C13.4724 15.0052 14.6663 13.8113 14.6663 12.3385C14.6663 10.8658 13.4724 9.67188 11.9997 9.67188C10.5269 9.67188 9.33301 10.8658 9.33301 12.3385C9.33301 13.8113 10.5269 15.0052 11.9997 15.0052Z" fill="#000080"/>
<path d="M12 14.5879C13.2426 14.5879 14.25 13.5805 14.25 12.3379C14.25 11.0953 13.2426 10.0879 12 10.0879C10.7574 10.0879 9.75 11.0953 9.75 12.3379C9.75 13.5805 10.7574 14.5879 12 14.5879Z" fill="#F7F7F7"/>
<path d="M12.0662 11.5051L11.9995 11.9384L11.9329 11.5051L11.9995 10.2051L12.0662 11.5051ZM11.4475 10.2777L11.7195 11.5504L11.8962 11.9517L11.8482 11.5164L11.4475 10.2777ZM10.9329 10.4911L11.5249 11.6497L11.7995 11.9917L11.6409 11.5831L10.9329 10.4911ZM10.4909 10.8297L11.3629 11.7964L11.7169 12.0557L11.4575 11.7017L10.4909 10.8297ZM10.1522 11.2717L11.2442 11.9797L11.6529 12.1384L11.3109 11.8637L10.1522 11.2717ZM9.93888 11.7864L11.1775 12.1871L11.6129 12.2351L11.2115 12.0584L9.93888 11.7864ZM9.86621 12.3384L11.1662 12.4051L11.5995 12.3384L11.1662 12.2717L9.86621 12.3384ZM9.93888 12.8904L11.2115 12.6184L11.6129 12.4417L11.1775 12.4897L9.93888 12.8904ZM10.1522 13.4051L11.3109 12.8131L11.6529 12.5384L11.2442 12.6971L10.1522 13.4051ZM10.4909 13.8471L11.4575 12.9751L11.7169 12.6211L11.3629 12.8804L10.4909 13.8471ZM10.9329 14.1857L11.6409 13.0937L11.7995 12.6851L11.5249 13.0271L10.9329 14.1857ZM11.4475 14.3991L11.8482 13.1604L11.8962 12.7251L11.7195 13.1264L11.4475 14.3991ZM11.9995 14.4717L12.0662 13.1717L11.9995 12.7384L11.9329 13.1717L11.9995 14.4717ZM12.5515 14.3991L12.2795 13.1264L12.1029 12.7251L12.1509 13.1604L12.5515 14.3991ZM13.0662 14.1857L12.4742 13.0271L12.1995 12.6851L12.3582 13.0937L13.0662 14.1857ZM13.5082 13.8471L12.6362 12.8804L12.2822 12.6211L12.5415 12.9751L13.5082 13.8471ZM13.8469 13.4051L12.7549 12.6971L12.3462 12.5384L12.6882 12.8131L13.8469 13.4051ZM14.0602 12.8904L12.8215 12.4897L12.3862 12.4417L12.7875 12.6184L14.0602 12.8904ZM14.1329 12.3384L12.8329 12.2717L12.3995 12.3384L12.8329 12.4051L14.1329 12.3384ZM14.0602 11.7864L12.7875 12.0584L12.3862 12.2351L12.8215 12.1871L14.0602 11.7864ZM13.8469 11.2717L12.6882 11.8637L12.3462 12.1384L12.7549 11.9797L13.8469 11.2717ZM13.5082 10.8297L12.5415 11.7017L12.2822 12.0557L12.6362 11.7964L13.5082 10.8297ZM13.0662 10.4911L12.3582 11.5831L12.1995 11.9917L12.4742 11.6497L13.0662 10.4911ZM12.5515 10.2777L12.1509 11.5164L12.1029 11.9517L12.2795 11.5504L12.5515 10.2777Z" fill="#6666B3"/>
<path d="M11.7066 10.2432C11.7802 10.2432 11.8399 10.1835 11.8399 10.1099C11.8399 10.0363 11.7802 9.97656 11.7066 9.97656C11.6329 9.97656 11.5732 10.0363 11.5732 10.1099C11.5732 10.1835 11.6329 10.2432 11.7066 10.2432Z" fill="#000080"/>
<path d="M11.1402 10.3956C11.2138 10.3956 11.2735 10.3359 11.2735 10.2622C11.2735 10.1886 11.2138 10.1289 11.1402 10.1289C11.0665 10.1289 11.0068 10.1886 11.0068 10.2622C11.0068 10.3359 11.0665 10.3956 11.1402 10.3956Z" fill="#000080"/>
<path d="M10.6324 10.6885C10.706 10.6885 10.7657 10.6288 10.7657 10.5552C10.7657 10.4816 10.706 10.4219 10.6324 10.4219C10.5587 10.4219 10.499 10.4816 10.499 10.5552C10.499 10.6288 10.5587 10.6885 10.6324 10.6885Z" fill="#000080"/>
<path d="M10.2173 11.1026C10.291 11.1026 10.3507 11.0429 10.3507 10.9693C10.3507 10.8956 10.291 10.8359 10.2173 10.8359C10.1437 10.8359 10.084 10.8956 10.084 10.9693C10.084 11.0429 10.1437 11.1026 10.2173 11.1026Z" fill="#000080"/>
<path d="M9.92533 11.6104C9.99896 11.6104 10.0587 11.5507 10.0587 11.4771C10.0587 11.4034 9.99896 11.3438 9.92533 11.3438C9.85169 11.3438 9.79199 11.4034 9.79199 11.4771C9.79199 11.5507 9.85169 11.6104 9.92533 11.6104Z" fill="#000080"/>
<path d="M9.77298 12.1768C9.84662 12.1768 9.90632 12.1171 9.90632 12.0435C9.90632 11.9699 9.84662 11.9102 9.77298 11.9102C9.69934 11.9102 9.63965 11.9699 9.63965 12.0435C9.63965 12.1171 9.69934 12.1768 9.77298 12.1768Z" fill="#000080"/>
<path d="M9.77298 12.7647C9.84662 12.7647 9.90632 12.705 9.90632 12.6314C9.90632 12.5577 9.84662 12.498 9.77298 12.498C9.69934 12.498 9.63965 12.5577 9.63965 12.6314C9.63965 12.705 9.69934 12.7647 9.77298 12.7647Z" fill="#000080"/>
<path d="M9.92533 13.3311C9.99896 13.3311 10.0587 13.2714 10.0587 13.1978C10.0587 13.1241 9.99896 13.0645 9.92533 13.0645C9.85169 13.0645 9.79199 13.1241 9.79199 13.1978C9.79199 13.2714 9.85169 13.3311 9.92533 13.3311Z" fill="#000080"/>
<path d="M10.2173 13.8389C10.291 13.8389 10.3507 13.7792 10.3507 13.7056C10.3507 13.632 10.291 13.5723 10.2173 13.5723C10.1437 13.5723 10.084 13.632 10.084 13.7056C10.084 13.7792 10.1437 13.8389 10.2173 13.8389Z" fill="#000080"/>
<path d="M10.6324 14.253C10.706 14.253 10.7657 14.1933 10.7657 14.1197C10.7657 14.046 10.706 13.9863 10.6324 13.9863C10.5587 13.9863 10.499 14.046 10.499 14.1197C10.499 14.1933 10.5587 14.253 10.6324 14.253Z" fill="#000080"/>
<path d="M11.1402 14.546C11.2138 14.546 11.2735 14.4863 11.2735 14.4126C11.2735 14.339 11.2138 14.2793 11.1402 14.2793C11.0665 14.2793 11.0068 14.339 11.0068 14.4126C11.0068 14.4863 11.0665 14.546 11.1402 14.546Z" fill="#000080"/>
<path d="M11.7066 14.6983C11.7802 14.6983 11.8399 14.6386 11.8399 14.565C11.8399 14.4913 11.7802 14.4316 11.7066 14.4316C11.6329 14.4316 11.5732 14.4913 11.5732 14.565C11.5732 14.6386 11.6329 14.6983 11.7066 14.6983Z" fill="#000080"/>
<path d="M12.2935 14.6983C12.3671 14.6983 12.4268 14.6386 12.4268 14.565C12.4268 14.4913 12.3671 14.4316 12.2935 14.4316C12.2199 14.4316 12.1602 14.4913 12.1602 14.565C12.1602 14.6386 12.2199 14.6983 12.2935 14.6983Z" fill="#000080"/>
<path d="M12.8599 14.546C12.9335 14.546 12.9932 14.4863 12.9932 14.4126C12.9932 14.339 12.9335 14.2793 12.8599 14.2793C12.7863 14.2793 12.7266 14.339 12.7266 14.4126C12.7266 14.4863 12.7863 14.546 12.8599 14.546Z" fill="#000080"/>
<path d="M13.3687 14.253C13.4423 14.253 13.502 14.1933 13.502 14.1197C13.502 14.046 13.4423 13.9863 13.3687 13.9863C13.295 13.9863 13.2354 14.046 13.2354 14.1197C13.2354 14.1933 13.295 14.253 13.3687 14.253Z" fill="#000080"/>
<path d="M13.7827 13.8389C13.8564 13.8389 13.9161 13.7792 13.9161 13.7056C13.9161 13.632 13.8564 13.5723 13.7827 13.5723C13.7091 13.5723 13.6494 13.632 13.6494 13.7056C13.6494 13.7792 13.7091 13.8389 13.7827 13.8389Z" fill="#000080"/>
<path d="M14.0757 13.3311C14.1494 13.3311 14.209 13.2714 14.209 13.1978C14.209 13.1241 14.1494 13.0645 14.0757 13.0645C14.0021 13.0645 13.9424 13.1241 13.9424 13.1978C13.9424 13.2714 14.0021 13.3311 14.0757 13.3311Z" fill="#000080"/>
<path d="M14.2281 12.7647C14.3017 12.7647 14.3614 12.705 14.3614 12.6314C14.3614 12.5577 14.3017 12.498 14.2281 12.498C14.1544 12.498 14.0947 12.5577 14.0947 12.6314C14.0947 12.705 14.1544 12.7647 14.2281 12.7647Z" fill="#000080"/>
<path d="M14.2281 12.1768C14.3017 12.1768 14.3614 12.1171 14.3614 12.0435C14.3614 11.9699 14.3017 11.9102 14.2281 11.9102C14.1544 11.9102 14.0947 11.9699 14.0947 12.0435C14.0947 12.1171 14.1544 12.1768 14.2281 12.1768Z" fill="#000080"/>
<path d="M14.0757 11.6104C14.1494 11.6104 14.209 11.5507 14.209 11.4771C14.209 11.4034 14.1494 11.3438 14.0757 11.3438C14.0021 11.3438 13.9424 11.4034 13.9424 11.4771C13.9424 11.5507 14.0021 11.6104 14.0757 11.6104Z" fill="#000080"/>
<path d="M13.7827 11.1026C13.8564 11.1026 13.9161 11.0429 13.9161 10.9693C13.9161 10.8956 13.8564 10.8359 13.7827 10.8359C13.7091 10.8359 13.6494 10.8956 13.6494 10.9693C13.6494 11.0429 13.7091 11.1026 13.7827 11.1026Z" fill="#000080"/>
<path d="M13.3687 10.6885C13.4423 10.6885 13.502 10.6288 13.502 10.5552C13.502 10.4816 13.4423 10.4219 13.3687 10.4219C13.295 10.4219 13.2354 10.4816 13.2354 10.5552C13.2354 10.6288 13.295 10.6885 13.3687 10.6885Z" fill="#000080"/>
<path d="M12.8599 10.3956C12.9335 10.3956 12.9932 10.3359 12.9932 10.2622C12.9932 10.1886 12.9335 10.1289 12.8599 10.1289C12.7863 10.1289 12.7266 10.1886 12.7266 10.2622C12.7266 10.3359 12.7863 10.3956 12.8599 10.3956Z" fill="#000080"/>
<path d="M12.2935 10.2432C12.3671 10.2432 12.4268 10.1835 12.4268 10.1099C12.4268 10.0363 12.3671 9.97656 12.2935 9.97656C12.2199 9.97656 12.1602 10.0363 12.1602 10.1099C12.1602 10.1835 12.2199 10.2432 12.2935 10.2432Z" fill="#000080"/>
<path d="M12.0004 12.9363C12.3318 12.9363 12.6004 12.6677 12.6004 12.3363C12.6004 12.005 12.3318 11.7363 12.0004 11.7363C11.669 11.7363 11.4004 12.005 11.4004 12.3363C11.4004 12.6677 11.669 12.9363 12.0004 12.9363Z" fill="#000080"/>
</g>
<defs>
<clipPath id="clip0_5139_90091">
<rect width="24" height="24" fill="white" transform="translate(0 0.337891)"/>
</clipPath>
</defs>
</svg>
