<svg width="24" height="24" viewBox="0 0 24 24" fill="none" xmlns="http://www.w3.org/2000/svg">
<path d="M12 5L13.104 3.455C13.514 2.879 13.721 2.591 13.591 2.325C13.461 2.057 13.131 2.042 12.471 2.011C12.315 2.00367 12.158 2 12 2C6.477 2 2 6.477 2 12C2 17.523 6.477 22 12 22C17.523 22 22 17.523 22 12C22.0008 10.4474 21.6397 8.91601 20.9453 7.52734C20.251 6.13866 19.2425 4.93093 18 4" stroke="black" stroke-width="1.5" stroke-linecap="round" stroke-linejoin="round"/>
<path d="M7.99219 11.0042C8.52019 10.5842 9.00019 9.89023 9.30019 10.0202C9.60019 10.1482 9.50419 10.5722 9.50419 11.2322V16.0082M16.0022 12.6002C16.0022 11.2202 16.0682 10.8482 15.8042 10.4042C15.5402 9.96023 14.8802 9.99822 14.2202 9.99822C13.5602 9.99822 13.0802 9.96022 12.7622 10.3202C12.3722 10.7402 12.5402 11.5202 12.4922 12.6002C12.6002 14.0402 12.3062 15.1802 12.7562 15.6602C13.0802 16.0562 13.6562 15.9962 14.3402 16.0082C15.0202 16.0002 15.4322 16.0322 15.7682 15.6482C16.1402 15.3122 15.9602 13.9802 16.0022 12.6002Z" stroke="black" stroke-width="1.5" stroke-linecap="round" stroke-linejoin="round"/>
</svg>
