<svg width="19" height="18" viewBox="0 0 19 18" fill="none" xmlns="http://www.w3.org/2000/svg">
    <path
        d="M14.75 18.0004H4.25C2.18225 18.0004 0.5 16.3182 0.5 14.2504V7.29345C0.5 6.0447 1.118 4.8822 2.153 4.1847L7.40225 0.641695C8.6765 -0.217805 10.3235 -0.217805 11.5977 0.641695L16.8478 4.1847C17.882 4.8822 18.5 6.04395 18.5 7.29345V14.2504C18.5 16.3182 16.8177 18.0004 14.75 18.0004ZM9.5 1.4982C9.062 1.4982 8.624 1.6272 8.2415 1.88595L2.9915 5.4282C2.3705 5.8467 2 6.54345 2 7.2927V14.2497C2 15.4902 3.0095 16.4997 4.25 16.4997H14.75C15.9905 16.4997 17 15.4902 17 14.2497V7.29345C17 6.5442 16.6295 5.8467 16.0093 5.42895L10.7585 1.88595C10.376 1.6272 9.938 1.4982 9.5 1.4982Z"
        fill="#9798A3" />
</svg>
    