<svg width="20" height="18" viewBox="0 0 20 18" fill="none" xmlns="http://www.w3.org/2000/svg">
<path d="M14.2969 0.40625C12.5704 0.40625 11.0381 1.08773 10 2.25906C8.96187 1.08773 7.42961 0.40625 5.70312 0.40625C4.19941 0.408069 2.7578 1.00622 1.69451 2.06951C0.631224 3.1328 0.0330694 4.57441 0.03125 6.07812C0.03125 12.2948 9.1243 17.262 9.51101 17.4709C9.66129 17.5518 9.82931 17.5942 10 17.5942C10.1707 17.5942 10.3387 17.5518 10.489 17.4709C10.8757 17.262 19.9688 12.2948 19.9688 6.07812C19.9669 4.57441 19.3688 3.1328 18.3055 2.06951C17.2422 1.00622 15.8006 0.408069 14.2969 0.40625ZM13.8251 12.6403C12.6282 13.656 11.3487 14.5701 10 15.3731C8.65126 14.5701 7.3718 13.656 6.17492 12.6403C4.31266 11.0427 2.09375 8.60641 2.09375 6.07812C2.09375 5.12086 2.47402 4.2028 3.15091 3.52591C3.8278 2.84902 4.74586 2.46875 5.70312 2.46875C7.23281 2.46875 8.51328 3.27656 9.04523 4.57766C9.12266 4.76733 9.25482 4.92964 9.42487 5.04389C9.59491 5.15815 9.79514 5.21916 10 5.21916C10.2049 5.21916 10.4051 5.15815 10.5751 5.04389C10.7452 4.92964 10.8773 4.76733 10.9548 4.57766C11.4867 3.27656 12.7672 2.46875 14.2969 2.46875C15.2541 2.46875 16.1722 2.84902 16.8491 3.52591C17.526 4.2028 17.9062 5.12086 17.9062 6.07812C17.9062 8.60641 15.6873 11.0427 13.8251 12.6403Z" fill="#1D1E22"/>
</svg>
