<svg width="12" height="12" viewBox="0 0 12 12" fill="none" xmlns="http://www.w3.org/2000/svg">
<path d="M10.5 7.5V6C10.5 5.40905 10.3836 4.82389 10.1575 4.27792C9.93131 3.73196 9.59984 3.23588 9.18198 2.81802C8.76412 2.40016 8.26804 2.06869 7.72208 1.84254C7.17611 1.6164 6.59095 1.5 6 1.5C5.40905 1.5 4.82389 1.6164 4.27792 1.84254C3.73196 2.06869 3.23588 2.40016 2.81802 2.81802C2.40016 3.23588 2.06869 3.73196 1.84254 4.27792C1.6164 4.82389 1.5 5.40905 1.5 6V7.5" stroke="url(#paint0_linear_5120_90888)" stroke-width="0.8" stroke-linecap="round"/>
<path d="M1.69917 7.64058V7.04297H1.10156V7.64058H1.69917ZM1.69917 8.23819H3.13343V7.04297H1.69917V8.23819ZM3.01391 8.11866V9.55292H4.20913V8.11866H3.01391ZM2.29678 9.55292V7.64058H1.10156V9.55292H2.29678ZM2.65534 9.91149C2.56025 9.91149 2.46905 9.87371 2.4018 9.80647C2.33456 9.73922 2.29678 9.64802 2.29678 9.55292H1.10156C1.10156 9.96501 1.26526 10.3602 1.55665 10.6516C1.84805 10.943 2.24326 11.1067 2.65534 11.1067V9.91149ZM3.01391 9.55292C3.01391 9.64802 2.97613 9.73922 2.90889 9.80647C2.84164 9.87371 2.75044 9.91149 2.65534 9.91149V11.1067C2.85939 11.1067 3.06144 11.0665 3.24995 10.9884C3.43847 10.9103 3.60975 10.7959 3.75403 10.6516C3.89832 10.5073 4.01277 10.336 4.09085 10.1475C4.16894 9.95902 4.20913 9.75697 4.20913 9.55292H3.01391ZM3.13343 8.23819C3.10173 8.23819 3.07133 8.22559 3.04892 8.20318C3.0265 8.18076 3.01391 8.15036 3.01391 8.11866H4.20913C4.20913 7.83337 4.0958 7.55976 3.89406 7.35803C3.69233 7.1563 3.41872 7.04297 3.13343 7.04297V8.23819ZM10.3047 7.64058H10.9023V7.04297H10.3047V7.64058ZM8.87047 8.23819H10.3047V7.04297H8.87047V8.23819ZM9.70713 7.64058V9.55292H10.9023V7.64058H9.70713ZM8.99 9.55292V8.11866H7.79478V9.55292H8.99ZM9.34856 9.91149C9.25346 9.91149 9.16226 9.87371 9.09502 9.80647C9.02777 9.73922 8.99 9.64802 8.99 9.55292H7.79478C7.79478 9.96501 7.95848 10.3602 8.24987 10.6516C8.54126 10.943 8.93647 11.1067 9.34856 11.1067V9.91149ZM9.70713 9.55292C9.70713 9.64802 9.66935 9.73922 9.60211 9.80647C9.53486 9.87371 9.44366 9.91149 9.34856 9.91149V11.1067C9.76065 11.1067 10.1559 10.943 10.4473 10.6516C10.7386 10.3602 10.9023 9.96501 10.9023 9.55292H9.70713ZM8.87047 7.04297C8.58518 7.04297 8.31157 7.1563 8.10984 7.35803C7.90811 7.55976 7.79478 7.83337 7.79478 8.11866H8.99C8.99 8.15036 8.9774 8.18076 8.95499 8.20318C8.93257 8.22559 8.90217 8.23819 8.87047 8.23819V7.04297Z" fill="url(#paint1_linear_5120_90888)"/>
<defs>
<linearGradient id="paint0_linear_5120_90888" x1="11.0772" y1="-0.808012" x2="7.47034" y2="9.86632" gradientUnits="userSpaceOnUse">
<stop stop-color="#CE1B69"/>
<stop offset="1" stop-color="#FF328B" stop-opacity="0.71"/>
</linearGradient>
<linearGradient id="paint1_linear_5120_90888" x1="11.5309" y1="5.47978" x2="9.90968" y2="13.1941" gradientUnits="userSpaceOnUse">
<stop stop-color="#CE1B69"/>
<stop offset="1" stop-color="#FF328B" stop-opacity="0.71"/>
</linearGradient>
</defs>
</svg>
