<svg width="19" height="19" viewBox="0 0 19 19" fill="none" xmlns="http://www.w3.org/2000/svg">
<path d="M15.7582 13.3672H14.5225C14.4381 13.3672 14.359 13.4041 14.3063 13.4692C14.1832 13.6186 14.0514 13.7627 13.9125 13.8998C13.3445 14.4684 12.6718 14.9214 11.9314 15.234C11.1644 15.558 10.34 15.7242 9.50742 15.7227C8.66543 15.7227 7.8498 15.5574 7.0834 15.234C6.34306 14.9214 5.67031 14.4684 5.10234 13.8998C4.53337 13.3332 4.07968 12.6616 3.76641 11.9223C3.44121 11.1559 3.27773 10.342 3.27773 9.50003C3.27773 8.65803 3.44297 7.84417 3.76641 7.07776C4.0793 6.33772 4.5293 5.67151 5.10234 5.10022C5.67539 4.52893 6.3416 4.07893 7.0834 3.76604C7.8498 3.4426 8.66543 3.27737 9.50742 3.27737C10.3494 3.27737 11.165 3.44085 11.9314 3.76604C12.6732 4.07893 13.3395 4.52893 13.9125 5.10022C14.0514 5.23909 14.1814 5.38323 14.3063 5.53089C14.359 5.59593 14.4398 5.63284 14.5225 5.63284H15.7582C15.8689 5.63284 15.9375 5.50979 15.876 5.41663C14.5277 3.32132 12.1687 1.9344 9.48809 1.94143C5.27637 1.95198 1.89961 5.37093 1.9418 9.57737C1.98398 13.717 5.35547 17.0586 9.50742 17.0586C12.1811 17.0586 14.5295 15.6735 15.876 13.5834C15.9357 13.4903 15.8689 13.3672 15.7582 13.3672ZM17.3209 9.38929L14.8266 7.42054C14.7334 7.34671 14.598 7.4135 14.598 7.53128V8.86721H9.07852C9.00117 8.86721 8.93789 8.9305 8.93789 9.00784V9.99221C8.93789 10.0696 9.00117 10.1328 9.07852 10.1328H14.598V11.4688C14.598 11.5866 14.7352 11.6533 14.8266 11.5795L17.3209 9.61077C17.3377 9.59761 17.3513 9.58081 17.3606 9.56162C17.37 9.54243 17.3749 9.52137 17.3749 9.50003C17.3749 9.47868 17.37 9.45762 17.3606 9.43843C17.3513 9.41925 17.3377 9.40244 17.3209 9.38929Z" fill="url(#paint0_linear_5176_95308)"/>
<defs>
<linearGradient id="paint0_linear_5176_95308" x1="18.3647" y1="-3.87371" x2="6.42973" y2="20.1661" gradientUnits="userSpaceOnUse">
<stop stop-color="#CE1B69"/>
<stop offset="1" stop-color="#FF328B" stop-opacity="0.71"/>
</linearGradient>
</defs>
</svg>
