<svg width="50" height="50" viewBox="0 0 50 50" fill="none" xmlns="http://www.w3.org/2000/svg">
    <rect width="50" height="50" rx="25" fill="#4A90E2" />
    <path
        d="M21.1855 17.9032C21.1855 15.7475 22.8985 14 25.0116 14C27.1247 14 28.8377 15.7475 28.8377 17.9032V24.2903C28.8377 26.446 27.1247 28.1935 25.0116 28.1935C22.8985 28.1935 21.1855 26.446 21.1855 24.2903V17.9032Z"
        fill="white" />
    <path fill-rule="evenodd" clip-rule="evenodd"
        d="M18.3156 22.0432C18.8838 22.1414 19.2664 22.691 19.1701 23.2706C19.0266 24.1343 19.0693 25.0195 19.2951 25.8647C19.5209 26.7099 19.9244 27.4948 20.4776 28.1647C21.0308 28.8347 21.7204 29.3738 22.4985 29.7444C23.2766 30.115 24.1244 30.3082 24.9831 30.3107C25.8418 30.3132 26.6907 30.1249 27.4709 29.7588C28.251 29.3928 28.9436 28.8578 29.5006 28.191C30.0575 27.5243 30.4655 26.7418 30.696 25.8979C30.9265 25.0541 30.9741 24.1691 30.8355 23.3046C30.7424 22.7244 31.1281 22.1771 31.6968 22.0822C32.2655 21.9873 32.802 22.3807 32.8951 22.9609C33.0826 24.1305 33.0182 25.3278 32.7063 26.4695C32.3944 27.6112 31.8425 28.6698 31.089 29.5719C30.3355 30.474 29.3984 31.1978 28.3429 31.6931C27.2875 32.1883 26.1389 32.4431 24.9772 32.4397C23.8154 32.4364 22.6683 32.1749 21.6156 31.6735C20.5629 31.1721 19.6299 30.4428 18.8815 29.5364C18.133 28.6299 17.587 27.568 17.2815 26.4246C16.976 25.2811 16.9183 24.0834 17.1125 22.9149C17.2087 22.3353 17.7474 21.945 18.3156 22.0432Z"
        fill="white" />
    <path fill-rule="evenodd" clip-rule="evenodd"
        d="M21.1855 34.9355C21.1855 34.3476 21.6527 33.871 22.229 33.871H27.7942C28.3705 33.871 28.8377 34.3476 28.8377 34.9355C28.8377 35.5234 28.3705 36 27.7942 36H22.229C21.6527 36 21.1855 35.5234 21.1855 34.9355Z"
        fill="white" />
</svg>
    