<svg width="110" height="110" viewBox="0 0 110 110" fill="none" xmlns="http://www.w3.org/2000/svg">
<path d="M32.084 36.6667C32.084 30.5888 34.4984 24.7598 38.7961 20.4621C43.0938 16.1644 48.9228 13.75 55.0006 13.75C61.0785 13.75 66.9075 16.1644 71.2052 20.4621C75.5029 24.7598 77.9173 30.5888 77.9173 36.6667V50.4167C77.9173 56.4945 75.5029 62.3235 71.2052 66.6212C66.9075 70.9189 61.0785 73.3333 55.0006 73.3333C48.9228 73.3333 43.0938 70.9189 38.7961 66.6212C34.4984 62.3235 32.084 56.4945 32.084 50.4167V36.6667Z" stroke="#DBDBE3" stroke-opacity="0.7" stroke-width="6.875"/>
<path d="M59.5843 36.668H77.9176M59.5843 50.418H77.9176M55.001 87.0846V100.835" stroke="#DBDBE3" stroke-opacity="0.7" stroke-width="6.875" stroke-linecap="round"/>
<path d="M95.1048 45.832C95.1048 44.9203 94.7427 44.046 94.098 43.4014C93.4533 42.7567 92.579 42.3945 91.6673 42.3945C90.7556 42.3945 89.8813 42.7567 89.2366 43.4014C88.592 44.046 88.2298 44.9203 88.2298 45.832H95.1048ZM21.7715 45.832C21.7715 44.9203 21.4093 44.046 20.7647 43.4014C20.12 42.7567 19.2457 42.3945 18.334 42.3945C17.4223 42.3945 16.548 42.7567 15.9033 43.4014C15.2586 44.046 14.8965 44.9203 14.8965 45.832H21.7715ZM71.0973 79.492C70.2999 79.9345 69.7109 80.6756 69.4599 81.5524C69.2089 82.4291 69.3165 83.3696 69.759 84.167C70.2015 84.9645 70.9426 85.5534 71.8193 85.8044C72.696 86.0554 73.6366 85.9478 74.434 85.5054L71.0973 79.492ZM88.2298 45.832V50.4154H95.1048V45.832H88.2298ZM21.7715 50.4154V45.832H14.8965V50.4154H21.7715ZM55.0007 83.6445C46.1877 83.6445 37.7358 80.1436 31.5041 73.9119C25.2724 67.6803 21.7715 59.2283 21.7715 50.4154H14.8965C14.8965 61.0517 19.1217 71.2523 26.6427 78.7733C34.1637 86.2943 44.3644 90.5195 55.0007 90.5195V83.6445ZM88.2298 50.4154C88.2319 56.3505 86.644 62.1779 83.631 67.2914C80.618 72.4049 76.2901 76.6178 71.0973 79.492L74.434 85.5054C80.6994 82.0357 85.9212 76.9511 89.5563 70.7802C93.1915 64.6093 95.1074 57.5774 95.1048 50.4154H88.2298Z" fill="#DBDBE3" fill-opacity="0.7"/>
</svg>
