<svg width="16" height="15" viewBox="0 0 16 15" fill="none" xmlns="http://www.w3.org/2000/svg">
<path d="M11.2497 13.5V1.5C11.6622 1.5 12.0154 1.647 12.3094 1.941C12.6034 2.235 12.7502 2.588 12.7497 3V12C12.7497 12.4125 12.6027 12.7657 12.3087 13.0597C12.0147 13.3537 11.6617 13.5005 11.2497 13.5ZM1.49996 15C1.08747 15 0.734231 14.853 0.440239 14.559C0.146247 14.265 -0.000498713 13.912 1.27331e-06 13.5V1.5C1.27331e-06 1.0875 0.146997 0.734251 0.440989 0.440251C0.734981 0.146251 1.08797 -0.000498727 1.49996 1.27334e-06H8.24977C8.66226 1.27334e-06 9.0155 0.147001 9.3095 0.441001C9.60349 0.735001 9.75023 1.088 9.74973 1.5V13.5C9.74973 13.9125 9.60274 14.2657 9.30875 14.5597C9.01475 14.8537 8.66176 15.0005 8.24977 15H1.49996ZM14.2496 12V3C14.5621 3 14.8278 3.1095 15.0468 3.3285C15.2658 3.5475 15.3751 3.813 15.3746 4.125V10.875C15.3746 11.1875 15.2651 11.4532 15.0461 11.6722C14.8271 11.8912 14.5616 12.0005 14.2496 12ZM1.49996 13.5H8.24977V1.5H1.49996V13.5Z" fill="url(#paint0_linear_5123_90571)"/>
<defs>
<linearGradient id="paint0_linear_5123_90571" x1="16.3606" y1="-5.77003" x2="4.54661" y2="18.1206" gradientUnits="userSpaceOnUse">
<stop stop-color="#CE1B69"/>
<stop offset="1" stop-color="#FF328B" stop-opacity="0.71"/>
</linearGradient>
</defs>
</svg>
