<svg width="19" height="18" viewBox="0 0 19 18" fill="none" xmlns="http://www.w3.org/2000/svg">
    <g clip-path="url(#clip0_6508_5490)">
        <path
            d="M5.75 0H3.5C2.70435 0 1.94129 0.316071 1.37868 0.87868C0.816071 1.44129 0.5 2.20435 0.5 3L0.5 5.25C0.5 6.04565 0.816071 6.80871 1.37868 7.37132C1.94129 7.93393 2.70435 8.25 3.5 8.25H5.75C6.54565 8.25 7.30871 7.93393 7.87132 7.37132C8.43393 6.80871 8.75 6.04565 8.75 5.25V3C8.75 2.20435 8.43393 1.44129 7.87132 0.87868C7.30871 0.316071 6.54565 0 5.75 0ZM7.25 5.25C7.25 5.64783 7.09197 6.02936 6.81066 6.31066C6.52936 6.59197 6.14783 6.75 5.75 6.75H3.5C3.10218 6.75 2.72064 6.59197 2.43934 6.31066C2.15804 6.02936 2 5.64783 2 5.25V3C2 2.60218 2.15804 2.22064 2.43934 1.93934C2.72064 1.65804 3.10218 1.5 3.5 1.5H5.75C6.14783 1.5 6.52936 1.65804 6.81066 1.93934C7.09197 2.22064 7.25 2.60218 7.25 3V5.25Z"
            fill="#9798A3" />
        <path
            d="M5.75 9.75049H3.5C2.70435 9.75049 1.94129 10.0666 1.37868 10.6292C0.816071 11.1918 0.5 11.9548 0.5 12.7505L0.5 15.0005C0.5 15.7961 0.816071 16.5592 1.37868 17.1218C1.94129 17.6844 2.70435 18.0005 3.5 18.0005H5.75C6.54565 18.0005 7.30871 17.6844 7.87132 17.1218C8.43393 16.5592 8.75 15.7961 8.75 15.0005V12.7505C8.75 11.9548 8.43393 11.1918 7.87132 10.6292C7.30871 10.0666 6.54565 9.75049 5.75 9.75049ZM7.25 15.0005C7.25 15.3983 7.09197 15.7798 6.81066 16.0611C6.52936 16.3425 6.14783 16.5005 5.75 16.5005H3.5C3.10218 16.5005 2.72064 16.3425 2.43934 16.0611C2.15804 15.7798 2 15.3983 2 15.0005V12.7505C2 12.3527 2.15804 11.9711 2.43934 11.6898C2.72064 11.4085 3.10218 11.2505 3.5 11.2505H5.75C6.14783 11.2505 6.52936 11.4085 6.81066 11.6898C7.09197 11.9711 7.25 12.3527 7.25 12.7505V15.0005Z"
            fill="#9798A3" />
        <path
            d="M15.5 9.75049H13.25C12.4544 9.75049 11.6913 10.0666 11.1287 10.6292C10.5661 11.1918 10.25 11.9548 10.25 12.7505V15.0005C10.25 15.7961 10.5661 16.5592 11.1287 17.1218C11.6913 17.6844 12.4544 18.0005 13.25 18.0005H15.5C16.2957 18.0005 17.0587 17.6844 17.6213 17.1218C18.1839 16.5592 18.5 15.7961 18.5 15.0005V12.7505C18.5 11.9548 18.1839 11.1918 17.6213 10.6292C17.0587 10.0666 16.2957 9.75049 15.5 9.75049ZM17 15.0005C17 15.3983 16.842 15.7798 16.5607 16.0611C16.2794 16.3425 15.8978 16.5005 15.5 16.5005H13.25C12.8522 16.5005 12.4706 16.3425 12.1893 16.0611C11.908 15.7798 11.75 15.3983 11.75 15.0005V12.7505C11.75 12.3527 11.908 11.9711 12.1893 11.6898C12.4706 11.4085 12.8522 11.2505 13.25 11.2505H15.5C15.8978 11.2505 16.2794 11.4085 16.5607 11.6898C16.842 11.9711 17 12.3527 17 12.7505V15.0005Z"
            fill="#9798A3" />
        <path
            d="M11 5.25049H13.25V7.50049C13.25 7.6994 13.329 7.89017 13.4697 8.03082C13.6103 8.17147 13.8011 8.25049 14 8.25049C14.1989 8.25049 14.3897 8.17147 14.5303 8.03082C14.671 7.89017 14.75 7.6994 14.75 7.50049V5.25049H17C17.1989 5.25049 17.3897 5.17147 17.5303 5.03082C17.671 4.89017 17.75 4.6994 17.75 4.50049C17.75 4.30158 17.671 4.11081 17.5303 3.97016C17.3897 3.82951 17.1989 3.75049 17 3.75049H14.75V1.50049C14.75 1.30158 14.671 1.11081 14.5303 0.970158C14.3897 0.829506 14.1989 0.750488 14 0.750488C13.8011 0.750488 13.6103 0.829506 13.4697 0.970158C13.329 1.11081 13.25 1.30158 13.25 1.50049V3.75049H11C10.8011 3.75049 10.6103 3.82951 10.4697 3.97016C10.329 4.11081 10.25 4.30158 10.25 4.50049C10.25 4.6994 10.329 4.89017 10.4697 5.03082C10.6103 5.17147 10.8011 5.25049 11 5.25049Z"
            fill="#9798A3" />
    </g>
    <defs>
        <clipPath id="clip0_6508_5490">
            <rect width="18" height="18" fill="white" transform="translate(0.5)" />
        </clipPath>
    </defs>
</svg>
    