<svg width="23" height="24" viewBox="0 0 23 24" fill="none" xmlns="http://www.w3.org/2000/svg">
<path d="M15.1786 8.80147H12.3325V14.0192C12.3325 14.6482 12.0827 15.2515 11.6379 15.6963C11.1931 16.1411 10.5898 16.3909 9.96083 16.3909C9.33181 16.3909 8.72856 16.1411 8.28378 15.6963C7.83899 15.2515 7.58912 14.6482 7.58912 14.0192C7.58912 13.3902 7.83899 12.787 8.28378 12.3422C8.72856 11.8974 9.33181 11.6475 9.96083 11.6475C10.5016 11.6475 10.9854 11.8278 11.3839 12.1219V6.90411H15.1786M18.0246 3.10938H4.74307C4.23986 3.10938 3.75725 3.30928 3.40143 3.6651C3.0456 4.02093 2.8457 4.50353 2.8457 5.00674V18.2883C2.8457 18.7915 3.0456 19.2741 3.40143 19.6299C3.75725 19.9858 4.23986 20.1857 4.74307 20.1857H18.0246C18.5278 20.1857 19.0104 19.9858 19.3663 19.6299C19.7221 19.2741 19.922 18.7915 19.922 18.2883V5.00674C19.922 4.50353 19.7221 4.02093 19.3663 3.6651C19.0104 3.30928 18.5278 3.10938 18.0246 3.10938Z" fill="white"/>
</svg>
