<?xml version="1.0" encoding="UTF-8"?>
<svg version="1.1" xmlns="http://www.w3.org/2000/svg" width="89" height="95">
<path d="M0 0 C29.37 0 58.74 0 89 0 C89 31.35 89 62.7 89 95 C59.63 95 30.26 95 0 95 C0 63.65 0 32.3 0 0 Z " fill="#FEFEFE" transform="translate(0,0)"/>
<path d="M0 0 C2.31 0.33 4.62 0.66 7 1 C7 7.27 7 13.54 7 20 C9.475 19.95875 11.95 19.9175 14.5 19.875 C28.03427075 19.79998389 28.03427075 19.79998389 32.66992188 23.23876953 C35.48841117 26.97088806 34.5105474 32.38708023 34.5 36.875 C34.52835938 37.96425781 34.55671875 39.05351563 34.5859375 40.17578125 C34.60781452 49.11254504 34.60781452 49.11254504 31.59375 52.1953125 C26.54262845 55.70979768 22.27333374 55.25458333 16.25 55.3125 C15.26 55.34150391 14.27 55.37050781 13.25 55.40039062 C6.24831102 55.46123418 2.45223708 54.3719525 -2.6796875 49.359375 C-6.10275246 44.75054244 -6.83125367 41.72641417 -6 36 C-5.3402417 35.23977539 -4.6804834 34.47955078 -4.00073242 33.69628906 C-1.45730513 30.26863671 -1.47621342 28.21844842 -1.42578125 23.984375 C-1.41161667 23.32794006 -1.39745209 22.67150513 -1.38285828 21.99517822 C-1.34115527 19.91328225 -1.32574895 17.83225385 -1.3125 15.75 C-1.28345369 13.65386477 -1.2489791 11.55794854 -1.21000671 9.4619751 C-1.17727741 7.57082544 -1.15921017 5.67943908 -1.1418457 3.78808594 C-1 1 -1 1 0 0 Z " fill="#787777" transform="translate(30,24)"/>
<path d="M0 0 C2.95658165 1.29531966 3.84211782 2.39947532 6 5 C6.66 7.31 7.32 9.62 8 12 C14.6 12 21.2 12 28 12 C28 10.02 28 8.04 28 6 C29.76953125 5.3359375 29.76953125 5.3359375 32 5 C33.88671875 6.0390625 33.88671875 6.0390625 35.6875 7.625 C36.28949219 8.13289063 36.89148438 8.64078125 37.51171875 9.1640625 C39.41013405 11.50593964 39.88505307 12.9883904 40 16 C38.7421875 18.23828125 38.7421875 18.23828125 36.875 20.3125 C36.27429688 21.00988281 35.67359375 21.70726563 35.0546875 22.42578125 C32.5247923 24.36408499 31.11233899 24.3176955 28 24 C28 21.69 28 19.38 28 17 C21.07 17 14.14 17 7 17 C6.01 19.475 6.01 19.475 5 22 C4.34 22.66 3.68 23.32 3 24 C2.96261719 23.11957031 2.92523438 22.23914063 2.88671875 21.33203125 C2.82097656 20.17058594 2.75523438 19.00914063 2.6875 17.8125 C2.62949219 16.66394531 2.57148437 15.51539063 2.51171875 14.33203125 C1.96543913 10.7749586 1.27945811 8.77744784 -1 6 C-4.07260314 5.03804322 -6.87196375 5.33253476 -10 6 C-12.7755983 7.63031977 -12.7755983 7.63031977 -14 11 C-14.60293903 14.99706994 -14.87118943 18.96178864 -15 23 C-18.53596786 19.6921591 -19.74041786 17.65483614 -20.5 12.8125 C-19.79358779 7.42610687 -16.9018596 4.61937202 -13 1 C-9.02547112 -0.98726444 -4.3215923 -0.53029412 0 0 Z " fill="#7A7979" transform="translate(39,14)"/>
</svg>
