<svg width="26" height="26" viewBox="0 0 26 26" fill="none" xmlns="http://www.w3.org/2000/svg">
<path d="M3.25 5.14957C3.25 3.62423 4.9595 2.7229 6.21833 3.58523L17.5912 11.3787C17.8443 11.5522 18.0515 11.7846 18.195 12.0558C18.3385 12.327 18.4141 12.629 18.4151 12.9359C18.4162 13.2427 18.3428 13.5453 18.2011 13.8175C18.0595 14.0897 17.8539 14.3235 17.602 14.4987L6.22808 22.4092C4.9725 23.2835 3.25 22.3822 3.25 20.8525V5.14957ZM22.75 4.06298C22.75 3.84749 22.6644 3.64083 22.512 3.48846C22.3597 3.33609 22.153 3.25048 21.9375 3.25048C21.722 3.25048 21.5153 3.33609 21.363 3.48846C21.2106 3.64083 21.125 3.84749 21.125 4.06298V21.938C21.125 22.1535 21.2106 22.3601 21.363 22.5125C21.5153 22.6649 21.722 22.7505 21.9375 22.7505C22.153 22.7505 22.3597 22.6649 22.512 22.5125C22.6644 22.3601 22.75 22.1535 22.75 21.938V4.06298Z" fill="#1D1E22"/>
</svg>
