<svg width="24" height="26" viewBox="0 0 24 26" fill="none" xmlns="http://www.w3.org/2000/svg">
    <path
        d="M12.0199 22.1502C9.68987 22.1502 7.35987 21.7533 5.14987 20.9595C4.30987 20.6484 3.66987 20.0155 3.38987 19.1896C3.09987 18.3636 3.19987 17.4518 3.65987 16.6365L4.80987 14.5877C5.04987 14.1586 5.26987 13.3005 5.26987 12.7963V9.69623C5.26987 5.70582 8.29987 2.45557 12.0199 2.45557C15.7399 2.45557 18.7699 5.70582 18.7699 9.69623V12.7963C18.7699 13.2898 18.9899 14.1586 19.2299 14.5984L20.3699 16.6365C20.7999 17.4089 20.8799 18.3421 20.5899 19.1896C20.2999 20.037 19.6699 20.6806 18.8799 20.9595C16.6799 21.7533 14.3499 22.1502 12.0199 22.1502ZM12.0199 4.0646C9.12987 4.0646 6.76987 6.58543 6.76987 9.69623V12.7963C6.76987 13.5794 6.46987 14.7379 6.09987 15.4137L4.94987 17.4625C4.72987 17.8594 4.66987 18.2778 4.79987 18.6318C4.91987 18.9965 5.21987 19.2754 5.62987 19.4255C9.80987 20.9273 14.2399 20.9273 18.4199 19.4255C18.7799 19.2968 19.0599 19.0072 19.1899 18.621C19.3199 18.2349 19.2899 17.8165 19.0899 17.4625L17.9399 15.4137C17.5599 14.7164 17.2699 13.5687 17.2699 12.7856V9.69623C17.2699 6.58543 14.9199 4.0646 12.0199 4.0646Z"
        fill="#5E5E5E" />
    <path
        d="M13.8796 4.35418C13.8096 4.35418 13.7396 4.34346 13.6696 4.322C13.3796 4.23619 13.0996 4.17183 12.8296 4.12892C11.9796 4.01092 11.1596 4.07528 10.3896 4.322C10.1096 4.41855 9.80963 4.322 9.61963 4.09674C9.42963 3.87147 9.36963 3.54966 9.47963 3.26004C9.88963 2.13371 10.8896 1.39355 12.0296 1.39355C13.1696 1.39355 14.1696 2.12299 14.5796 3.26004C14.6796 3.54966 14.6296 3.87147 14.4396 4.09674C14.2896 4.26837 14.0796 4.35418 13.8796 4.35418Z"
        fill="#5E5E5E" />
    <path
        d="M12.0195 24.5958C11.0295 24.5958 10.0695 24.1668 9.36953 23.4159C8.66953 22.665 8.26953 21.6352 8.26953 20.5732H9.76953C9.76953 21.2061 10.0095 21.8283 10.4295 22.2788C10.8495 22.7294 11.4295 22.9868 12.0195 22.9868C13.2595 22.9868 14.2695 21.9034 14.2695 20.5732H15.7695C15.7695 22.7937 14.0895 24.5958 12.0195 24.5958Z"
        fill="#5E5E5E" />
</svg>
    