<svg width="36" height="36" viewBox="0 0 36 36" fill="none" xmlns="http://www.w3.org/2000/svg">
<rect width="36" height="36" rx="4" fill="black" fill-opacity="0.36"/>
<path d="M28.989 14.1586L28.0388 13.1262L24.3966 21.9006L28.8929 17.0918C29.6641 16.25 29.7235 14.9419 28.989 14.1586ZM10.3826 10.6498L9.91568 24.0684C9.89721 24.4749 9.98963 24.8698 10.1816 25.2045C10.3735 25.5392 10.6566 25.799 10.996 25.9522C11.2242 26.0469 11.4813 26.0967 11.7539 26.0845L19.4523 25.8058C20.2356 25.7778 20.9377 25.2263 21.2538 24.5146C21.3674 24.2656 21.4405 23.9656 21.4664 23.6802L21.8982 10.2469C21.9218 9.83983 21.8309 9.44335 21.6375 9.10911C21.4441 8.77487 21.1571 8.51835 20.8138 8.37293C20.5857 8.27821 20.3333 8.24179 20.0776 8.23817L12.3879 8.52051C11.8777 8.53695 11.3799 8.77048 11.0038 9.16977C10.6278 9.56906 10.4043 10.1014 10.3826 10.6498ZM26.0892 12.841C26.3031 12.3255 26.3234 11.7545 26.1455 11.2534C25.9676 10.7523 25.6061 10.3622 25.1406 10.169L23.868 9.64072L23.532 19.0015" fill="white"/>
</svg>
