<svg width="11" height="12" viewBox="0 0 11 12" fill="none" xmlns="http://www.w3.org/2000/svg">
<g clip-path="url(#clip0_6289_17118)">
<path d="M2 9.91456V2.77294C1.99996 2.65347 2.03145 2.5361 2.09128 2.4327C2.15112 2.32929 2.23717 2.2435 2.34077 2.18398C2.44436 2.12447 2.56182 2.09335 2.6813 2.09375C2.80077 2.09416 2.91801 2.12608 3.0212 2.18629L9.14229 5.75778C9.24471 5.8176 9.32968 5.90321 9.38872 6.00607C9.44777 6.10894 9.47884 6.22548 9.47884 6.34409C9.47884 6.4627 9.44777 6.57924 9.38872 6.6821C9.32968 6.78497 9.24471 6.87058 9.14229 6.9304L3.0212 10.5012C2.91801 10.5614 2.80077 10.5933 2.6813 10.5937C2.56182 10.5942 2.44436 10.563 2.34077 10.5035C2.23717 10.444 2.15112 10.3582 2.09128 10.2548C2.03145 10.1514 1.99996 10.034 2 9.91456Z" stroke="white" stroke-linecap="round" stroke-linejoin="round"/>
</g>
<defs>
<clipPath id="clip0_6289_17118">
<rect width="11" height="11" fill="white" transform="translate(0 0.59375)"/>
</clipPath>
</defs>
</svg>
