<svg width="23" height="22" viewBox="0 0 23 22" fill="none" xmlns="http://www.w3.org/2000/svg">
<path d="M21.125 11.0004C21.1256 11.2339 21.0657 11.4635 20.9513 11.6669C20.8368 11.8704 20.6717 12.0407 20.4719 12.1614L8.09 19.736C7.88125 19.8638 7.64215 19.9336 7.39741 19.9381C7.15267 19.9427 6.91116 19.8818 6.69781 19.7618C6.4865 19.6436 6.31047 19.4713 6.18783 19.2626C6.06518 19.0538 6.00035 18.8162 6 18.5741V3.42676C6.00035 3.18466 6.06518 2.94702 6.18783 2.73829C6.31047 2.52955 6.4865 2.35725 6.69781 2.2391C6.91116 2.11909 7.15267 2.0582 7.39741 2.06274C7.64215 2.06727 7.88125 2.13705 8.09 2.26488L20.4719 9.83941C20.6717 9.96013 20.8368 10.1305 20.9513 10.3339C21.0657 10.5374 21.1256 10.767 21.125 11.0004Z" fill="#1D1E22"/>
</svg>
