<svg width="22" height="22" viewBox="0 0 22 22" fill="none" xmlns="http://www.w3.org/2000/svg">
<path d="M4 18.6416V4.35838C3.99993 4.11944 4.06291 3.88471 4.18257 3.67789C4.30223 3.47107 4.47435 3.29949 4.68154 3.18047C4.88872 3.06145 5.12365 2.9992 5.36259 3.00001C5.60153 3.00082 5.83603 3.06466 6.0424 3.18509L18.2846 10.3281C18.4894 10.4477 18.6594 10.6189 18.7774 10.8246C18.8955 11.0304 18.9577 11.2635 18.9577 11.5007C18.9577 11.7379 18.8955 11.971 18.7774 12.1767C18.6594 12.3824 18.4894 12.5537 18.2846 12.6733L6.0424 19.8149C5.83603 19.9353 5.60153 19.9992 5.36259 20C5.12365 20.0008 4.88872 19.9386 4.68154 19.8195C4.47435 19.7005 4.30223 19.5289 4.18257 19.3221C4.06291 19.1153 3.99993 18.8806 4 18.6416Z" stroke="black" stroke-width="2" stroke-linecap="round" stroke-linejoin="round"/>
</svg>
