<svg width="26" height="26" viewBox="0 0 26 26" fill="none" xmlns="http://www.w3.org/2000/svg">
<path d="M22.75 5.14957C22.75 3.62423 21.0405 2.7229 19.7817 3.58523L8.40883 11.3787C8.15573 11.5522 7.94851 11.7846 7.805 12.0558C7.66148 12.327 7.58594 12.629 7.58488 12.9359C7.58381 13.2427 7.65725 13.5453 7.79888 13.8175C7.94051 14.0897 8.1461 14.3235 8.398 14.4987L19.7719 22.4092C21.0275 23.2835 22.75 22.3822 22.75 20.8525V5.14957ZM3.25 4.06298C3.25 3.84749 3.3356 3.64083 3.48797 3.48846C3.64035 3.33609 3.84701 3.25048 4.0625 3.25048C4.27799 3.25048 4.48465 3.33609 4.63702 3.48846C4.7894 3.64083 4.875 3.84749 4.875 4.06298V21.938C4.875 22.1535 4.7894 22.3601 4.63702 22.5125C4.48465 22.6649 4.27799 22.7505 4.0625 22.7505C3.84701 22.7505 3.64035 22.6649 3.48797 22.5125C3.3356 22.3601 3.25 22.1535 3.25 21.938V4.06298Z" fill="#1D1E22"/>
</svg>
