<svg width="18" height="19" viewBox="0 0 18 19" fill="none" xmlns="http://www.w3.org/2000/svg">
<path d="M16.875 8.93651C16.8761 8.37325 16.7363 7.81866 16.4682 7.3233C16.2001 6.82793 15.8123 6.40754 15.3401 6.10044C14.8679 5.79334 14.3264 5.6093 13.7649 5.5651C13.2034 5.52089 12.6397 5.61793 12.1253 5.84736C11.6109 6.07679 11.1621 6.43131 10.8197 6.87863C10.4774 7.32594 10.2525 7.85181 10.1655 8.40831C10.0785 8.96481 10.1322 9.53423 10.3216 10.0647C10.511 10.5951 10.8302 11.0698 11.25 11.4453V16.8115L13.5 15.7518L15.75 16.8115V11.4453C16.1036 11.1299 16.3866 10.7434 16.5805 10.3111C16.7744 9.87874 16.8747 9.41032 16.875 8.93651ZM14.625 15.0385L13.5 14.5086L12.375 15.0385V12.1146C13.102 12.3772 13.898 12.3772 14.625 12.1146V15.0385ZM13.5 11.1865C13.055 11.1865 12.62 11.0545 12.25 10.8073C11.88 10.5601 11.5916 10.2087 11.4213 9.79755C11.251 9.38641 11.2064 8.93401 11.2932 8.49756C11.38 8.0611 11.5943 7.66019 11.909 7.34552C12.2237 7.03085 12.6246 6.81656 13.061 6.72974C13.4975 6.64292 13.9499 6.68748 14.361 6.85778C14.7722 7.02808 15.1236 7.31647 15.3708 7.68648C15.618 8.05649 15.75 8.4915 15.75 8.93651C15.7492 9.53302 15.512 10.1049 15.0902 10.5267C14.6684 10.9485 14.0965 11.1858 13.5 11.1865Z" fill="url(#paint0_linear_5176_95289)"/>
<path d="M7.875 1.625C6.98021 1.62604 6.12238 1.98196 5.48967 2.61467C4.85696 3.24738 4.50104 4.10521 4.5 5V8.375H3.375C3.07672 8.3753 2.79075 8.49392 2.57983 8.70483C2.36892 8.91575 2.2503 9.20172 2.25 9.5V16.25C2.2503 16.5483 2.36892 16.8343 2.57983 17.0452C2.79075 17.2561 3.07672 17.3747 3.375 17.375H9.5625V16.25H3.375V9.5H8.4375V8.375H5.625V5C5.62444 4.44202 5.83123 3.90374 6.20522 3.48965C6.57921 3.07556 7.09372 2.81521 7.64888 2.75913C8.20403 2.70305 8.76022 2.85526 9.20946 3.18619C9.65871 3.51713 9.96897 4.00318 10.08 4.55L11.1825 4.325C11.0252 3.5635 10.6106 2.87938 10.0082 2.38767C9.40586 1.89595 8.65257 1.62663 7.875 1.625Z" fill="url(#paint1_linear_5176_95289)"/>
<defs>
<linearGradient id="paint0_linear_5176_95289" x1="17.3079" y1="1.22454" x2="6.30718" y2="14.2391" gradientUnits="userSpaceOnUse">
<stop stop-color="#CE1B69"/>
<stop offset="1" stop-color="#FF328B" stop-opacity="0.71"/>
</linearGradient>
<linearGradient id="paint1_linear_5176_95289" x1="11.7554" y1="-4.43353" x2="-3.75623" y2="12.9232" gradientUnits="userSpaceOnUse">
<stop stop-color="#CE1B69"/>
<stop offset="1" stop-color="#FF328B" stop-opacity="0.71"/>
</linearGradient>
</defs>
</svg>
