<svg width="20" height="20" viewBox="0 0 20 20" fill="none" xmlns="http://www.w3.org/2000/svg">
    <g clip-path="url(#clip0_6137_19852)">
        <path
            d="M19.1645 9.16667C18.9435 9.16667 18.7315 9.25447 18.5752 9.41075C18.4189 9.56703 18.3312 9.77899 18.3312 10C18.3379 11.9377 17.6715 13.8177 16.4458 15.3185C15.22 16.8193 13.5111 17.8478 11.6111 18.2282C9.71103 18.6086 7.73785 18.3173 6.0288 17.4041C4.31976 16.4908 2.98093 15.0124 2.24118 13.2214C1.50142 11.4304 1.40666 9.43811 1.97308 7.58501C2.53951 5.7319 3.73195 4.13305 5.34661 3.06173C6.96126 1.9904 8.89787 1.51313 10.8254 1.71148C12.753 1.90982 14.5518 2.77148 15.9145 4.14917C15.8871 4.15664 15.8592 4.16249 15.8311 4.16667H13.3312C13.1101 4.16667 12.8982 4.25447 12.7419 4.41075C12.5856 4.56703 12.4978 4.77899 12.4978 5C12.4978 5.22101 12.5856 5.43298 12.7419 5.58926C12.8982 5.74554 13.1101 5.83333 13.3312 5.83333H15.8311C16.4942 5.83333 17.1301 5.56994 17.5989 5.1011C18.0678 4.63226 18.3312 3.99638 18.3312 3.33333V0.833333C18.3312 0.61232 18.2434 0.400358 18.0871 0.244078C17.9308 0.0877974 17.7188 0 17.4978 0C17.2768 0 17.0648 0.0877974 16.9086 0.244078C16.7523 0.400358 16.6645 0.61232 16.6645 0.833333V2.55417C14.9583 1.02878 12.7802 0.135139 10.4944 0.0225855C8.20847 -0.0899677 5.95319 0.585381 4.10538 1.93578C2.25757 3.28618 0.929179 5.22982 0.34217 7.44192C-0.244838 9.65402 -0.0548972 12.0006 0.880252 14.0895C1.8154 16.1784 3.43911 17.883 5.48005 18.9187C7.52099 19.9543 9.85553 20.2581 12.0936 19.7794C14.3316 19.3006 16.3375 18.0683 17.7762 16.2884C19.2148 14.5084 19.9991 12.2887 19.9978 10C19.9978 9.77899 19.91 9.56703 19.7537 9.41075C19.5975 9.25447 19.3855 9.16667 19.1645 9.16667Z"
            fill="white" />
        <path
            d="M10.0013 5C9.78029 5 9.56833 5.0878 9.41205 5.24408C9.25577 5.40036 9.16797 5.61232 9.16797 5.83333V10C9.16802 10.221 9.25584 10.4329 9.41214 10.5892L11.9121 13.0892C12.0693 13.241 12.2798 13.325 12.4983 13.3231C12.7168 13.3212 12.9258 13.2335 13.0803 13.079C13.2348 12.9245 13.3225 12.7155 13.3244 12.497C13.3263 12.2785 13.2423 12.068 13.0905 11.9108L10.8346 9.655V5.83333C10.8346 5.61232 10.7468 5.40036 10.5906 5.24408C10.4343 5.0878 10.2223 5 10.0013 5Z"
            fill="white" />
    </g>
    <defs>
        <clipPath id="clip0_6137_19852">
            <rect width="20" height="20" fill="white" />
        </clipPath>
    </defs>
</svg>
    