<svg width="14" height="14" viewBox="0 0 14 14" fill="none" xmlns="http://www.w3.org/2000/svg">
<path fill-rule="evenodd" clip-rule="evenodd" d="M6.99805 5.6875C7.11408 5.6875 7.22536 5.73359 7.30741 5.81564C7.38945 5.89769 7.43555 6.00897 7.43555 6.125C7.43555 6.43942 7.6193 6.76667 7.92205 7.035C8.23121 7.30975 8.56955 7.4375 8.74805 7.4375C8.86408 7.4375 8.97536 7.48359 9.05741 7.56564C9.13945 7.64769 9.18555 7.75897 9.18555 7.875C9.18555 7.99103 9.13945 8.10231 9.05741 8.18436C8.97536 8.26641 8.86408 8.3125 8.74805 8.3125C8.31755 8.3125 7.82638 8.08675 7.43555 7.77V9.91667C7.43546 10.1953 7.34673 10.4666 7.1822 10.6914C7.01766 10.9162 6.78585 11.0829 6.52033 11.1672C6.2548 11.2515 5.96933 11.2492 5.70523 11.1605C5.44112 11.0718 5.21209 10.9014 5.05128 10.6739C4.89047 10.4464 4.80622 10.1736 4.81072 9.89506C4.81522 9.6165 4.90824 9.3466 5.07633 9.12442C5.24441 8.90224 5.47883 8.7393 5.74566 8.6592C6.01249 8.57909 6.29788 8.58597 6.56055 8.67883V6.125C6.56055 6.00897 6.60664 5.89769 6.68869 5.81564C6.77074 5.73359 6.88201 5.6875 6.99805 5.6875ZM6.56055 9.91667C6.56055 9.80063 6.51445 9.68935 6.43241 9.60731C6.35036 9.52526 6.23908 9.47917 6.12305 9.47917C6.00701 9.47917 5.89574 9.52526 5.81369 9.60731C5.73164 9.68935 5.68555 9.80063 5.68555 9.91667C5.68555 10.0327 5.73164 10.144 5.81369 10.226C5.89574 10.3081 6.00701 10.3542 6.12305 10.3542C6.23908 10.3542 6.35036 10.3081 6.43241 10.226C6.51445 10.144 6.56055 10.0327 6.56055 9.91667Z" fill="url(#paint0_linear_5130_91417)"/>
<path fill-rule="evenodd" clip-rule="evenodd" d="M5.07411 0.730469H8.92411C9.05244 0.730469 9.15103 0.730469 9.23678 0.739802C9.61737 0.780572 9.97084 0.956086 10.2334 1.23465C10.4959 1.51321 10.6501 1.87646 10.6683 2.2588C11.0106 2.362 11.3112 2.57142 11.5266 2.85677C11.742 3.14211 11.861 3.48858 11.8664 3.84605C12.217 3.95105 12.5198 4.1173 12.7671 4.38447C13.1474 4.79572 13.2653 5.30147 13.2699 5.89297C13.274 6.46172 13.1731 7.18039 13.0471 8.0723L12.7904 9.8888C12.6924 10.5865 12.6125 11.1535 12.4883 11.5974C12.3582 12.0623 12.1663 12.4444 11.8116 12.7384C11.4593 13.0301 11.0416 13.1555 10.5481 13.215C10.0704 13.2721 9.46953 13.2721 8.72228 13.2721H5.27594C4.52811 13.2721 3.92728 13.2721 3.45011 13.215C2.95603 13.1555 2.53836 13.0301 2.18603 12.7384C1.83136 12.4444 1.63944 12.0617 1.50936 11.5974C1.38511 11.1535 1.30519 10.5865 1.20661 9.88822L0.950526 8.0723C0.82511 7.1798 0.723026 6.46172 0.727693 5.89297C0.73236 5.30147 0.850193 4.79572 1.23053 4.38447C1.47786 4.1173 1.78003 3.95164 2.13061 3.84605C2.13623 3.48861 2.2554 3.14221 2.4709 2.85698C2.6864 2.57174 2.98705 2.36245 3.32936 2.25939C3.34737 1.87694 3.50157 1.51355 3.7641 1.23487C4.02663 0.956186 4.38017 0.780589 4.76086 0.739802C4.84661 0.730469 4.94519 0.730469 5.07294 0.730469H5.07411ZM3.02544 3.69264C3.56561 3.64714 4.22711 3.64714 5.02453 3.64714H8.97253C9.76936 3.64714 10.4309 3.64714 10.9716 3.69264C10.9312 3.51399 10.8312 3.35441 10.6881 3.24013C10.545 3.12585 10.3673 3.06366 10.1841 3.0638H3.81353C3.42328 3.0638 3.10653 3.33797 3.02661 3.69264H3.02544ZM9.14286 1.61014C9.46369 1.64397 9.71744 1.88314 9.77986 2.1888H4.21778C4.24872 2.03714 4.32713 1.89926 4.44165 1.79512C4.55617 1.69098 4.70086 1.62599 4.85478 1.60955C4.88744 1.60605 4.93411 1.60547 5.09803 1.60547H8.90019C9.06353 1.60547 9.11019 1.60605 9.14344 1.60955L9.14286 1.61014ZM1.87336 4.9783C2.05011 4.78755 2.31553 4.66097 2.83178 4.59214C3.35736 4.52214 4.06144 4.52155 5.05778 4.52155H8.94044C9.93678 4.52155 10.6409 4.52272 11.1664 4.59214C11.6827 4.66097 11.9481 4.78755 12.1249 4.9783C12.2975 5.16497 12.3914 5.41872 12.3949 5.89939C12.3984 6.39522 12.3074 7.04855 12.1756 7.98539L11.9289 9.73539C11.825 10.471 11.7527 10.9796 11.6459 11.3611C11.5427 11.7286 11.4219 11.9241 11.2534 12.0635C11.0824 12.2058 10.8526 12.2968 10.4437 12.3458C10.0243 12.396 9.47594 12.3966 8.69369 12.3966H5.30453C4.52169 12.3966 3.97394 12.396 3.55453 12.3458C3.14619 12.2962 2.91578 12.2058 2.74486 12.0641C2.57628 11.9241 2.45553 11.7281 2.35228 11.3611C2.24553 10.9796 2.17319 10.471 2.06936 9.73539L1.82261 7.98539C1.69078 7.04914 1.59978 6.39522 1.60328 5.89939C1.60678 5.41872 1.70069 5.16439 1.87336 4.9783Z" fill="url(#paint1_linear_5130_91417)"/>
<defs>
<linearGradient id="paint0_linear_5130_91417" x1="9.46614" y1="3.55595" x2="4.47277" y2="11.3342" gradientUnits="userSpaceOnUse">
<stop stop-color="#CE1B69"/>
<stop offset="1" stop-color="#FF328B" stop-opacity="0.71"/>
</linearGradient>
<linearGradient id="paint1_linear_5130_91417" x1="14.0745" y1="-4.09392" x2="4.04999" y2="15.6854" gradientUnits="userSpaceOnUse">
<stop stop-color="#CE1B69"/>
<stop offset="1" stop-color="#FF328B" stop-opacity="0.71"/>
</linearGradient>
</defs>
</svg>
