<svg width="9" height="9" viewBox="0 0 9 9" fill="none" xmlns="http://www.w3.org/2000/svg">
<path d="M1.38467 0C0.62137 0 0 0.621346 0 1.38462V7.61539C0 8.37865 0.62137 9 1.38467 9H5.88484C6.25282 9 6.76376 8.46865 7.35605 7.86427C7.43913 7.77981 7.51875 7.70054 7.60494 7.61539C7.6901 7.52954 7.78011 7.43885 7.86457 7.35577C8.46932 6.76315 9.00034 6.25258 9.00034 5.88462V1.38462C9.00034 0.621346 8.37897 0 7.61568 0H1.38467ZM1.38467 0.692308H7.61568C7.79929 0.692308 7.97539 0.765247 8.10523 0.89508C8.23507 1.02491 8.30801 1.201 8.30801 1.38462V5.88462C8.30801 6.22904 7.96115 6.23077 7.61568 6.23077H6.57717C6.38644 6.23077 6.23101 6.38619 6.23101 6.57692V7.63719C6.23101 7.94423 6.2317 8.244 5.98211 8.30769H1.38467C1.20105 8.30769 1.02495 8.23475 0.895114 8.10492C0.765276 7.97509 0.692334 7.799 0.692334 7.61539V1.38462C0.692334 1.201 0.765276 1.02491 0.895114 0.89508C1.02495 0.765247 1.20105 0.692308 1.38467 0.692308ZM2.35844 2.76923C2.26663 2.77781 2.18199 2.82252 2.12314 2.8935C2.06429 2.96449 2.03605 3.05594 2.04464 3.14775C2.05322 3.23956 2.09792 3.32419 2.16891 3.38304C2.2399 3.44188 2.33136 3.47012 2.42317 3.46154H6.57717C6.66898 3.46154 6.75703 3.42507 6.82195 3.36015C6.88687 3.29524 6.92334 3.20719 6.92334 3.11538C6.92334 3.02358 6.88687 2.93553 6.82195 2.87062C6.75703 2.8057 6.66898 2.76923 6.57717 2.76923H2.42317C2.41233 2.76872 2.40147 2.76872 2.39063 2.76923C2.3799 2.76873 2.36916 2.76873 2.35844 2.76923ZM2.35844 4.5C2.31298 4.50425 2.2688 4.51741 2.22843 4.53874C2.18806 4.56006 2.15228 4.58912 2.12314 4.62427C2.06429 4.69526 2.03605 4.78671 2.04464 4.87852C2.05322 4.97032 2.09792 5.05496 2.16891 5.11381C2.2399 5.17265 2.33136 5.20089 2.42317 5.19231H5.88484C5.97665 5.19231 6.0647 5.15584 6.12962 5.09092C6.19454 5.02601 6.23101 4.93796 6.23101 4.84615C6.23101 4.75435 6.19454 4.6663 6.12962 4.60139C6.0647 4.53647 5.97665 4.5 5.88484 4.5H2.42317C2.41233 4.49949 2.40147 4.49949 2.39063 4.5C2.3799 4.4995 2.36916 4.4995 2.35844 4.5Z" fill="url(#paint0_linear_5120_90961)"/>
<defs>
<linearGradient id="paint0_linear_5120_90961" x1="9.57758" y1="-3.46202" x2="2.3838" y2="10.7316" gradientUnits="userSpaceOnUse">
<stop stop-color="#CE1B69"/>
<stop offset="1" stop-color="#FF328B" stop-opacity="0.71"/>
</linearGradient>
</defs>
</svg>
