<svg width="110" height="11" viewBox="0 0 110 11" fill="none" xmlns="http://www.w3.org/2000/svg">
<path d="M0.607422 0.569518H3.82444C4.94282 0.569518 5.75859 0.748146 6.27173 1.1054C6.78488 1.45373 7.04145 1.99408 7.04145 2.72646V3.30253C7.04145 4.27606 6.56778 4.89232 5.62044 5.15134V5.17813C6.14674 5.28531 6.51515 5.50413 6.72567 5.83459C6.94935 6.16505 7.06119 6.60716 7.06119 7.1609V8.80875C7.06119 9.07669 7.07434 9.29551 7.10066 9.46521C7.12697 9.62598 7.19276 9.78674 7.29802 9.94751H5.08756C5.00861 9.79567 4.95598 9.65277 4.92967 9.5188C4.90335 9.38483 4.89019 9.14368 4.89019 8.79535V7.08052C4.89019 6.65181 4.78493 6.35261 4.57441 6.18291C4.37705 6.01322 4.02838 5.92837 3.52839 5.92837H2.77841V9.94751H0.607422V0.569518ZM3.56786 4.58866C4.00206 4.58866 4.32442 4.51274 4.53494 4.36091C4.75862 4.20907 4.87046 3.95453 4.87046 3.59727V2.87382C4.87046 2.53443 4.77836 2.28882 4.59415 2.13698C4.4231 1.98515 4.1468 1.90923 3.76523 1.90923H2.77841V4.58866H3.56786Z" fill="#636363"/>
<path d="M8.56746 0.569518H14.4883V1.90923H10.7385V4.3877H13.7186V5.72741H10.7385V8.60779H14.4883V9.94751H8.56746V0.569518Z" fill="#636363"/>
<path d="M18.5981 10.0815C17.5455 10.0815 16.7495 9.88052 16.21 9.47861C15.6706 9.06776 15.4008 8.48275 15.4008 7.72358V7.1877H17.4534V7.83076C17.4534 8.4381 17.8284 8.74177 18.5784 8.74177C18.9468 8.74177 19.2231 8.67031 19.4073 8.52741C19.6047 8.37558 19.7034 8.13443 19.7034 7.80397C19.7034 7.41098 19.5718 7.06712 19.3086 6.77239C19.0455 6.46872 18.5586 6.107 17.8481 5.68722C16.9534 5.15134 16.3284 4.66904 15.9732 4.24033C15.6179 3.80269 15.4403 3.31146 15.4403 2.76665C15.4403 2.02534 15.7166 1.45373 16.2692 1.05181C16.8219 0.640969 17.6245 0.435547 18.6771 0.435547C19.7165 0.435547 20.4994 0.640969 21.0257 1.05181C21.5651 1.45373 21.8349 2.03427 21.8349 2.79344V3.18196H19.7823V2.69966C19.7823 2.37813 19.6902 2.14591 19.506 2.00301C19.3218 1.85118 19.0521 1.77526 18.6968 1.77526C17.9731 1.77526 17.6113 2.07446 17.6113 2.67287C17.6113 3.01226 17.7429 3.32933 18.006 3.62406C18.2823 3.9188 18.7757 4.27606 19.4863 4.69583C20.3941 5.23172 21.0191 5.71848 21.3612 6.15612C21.7033 6.59376 21.8743 7.10732 21.8743 7.69679C21.8743 8.46489 21.5915 9.05437 21.0257 9.46521C20.4731 9.87606 19.6639 10.0815 18.5981 10.0815Z" fill="#636363"/>
<path d="M23.1191 0.569518H29.04V1.90923H25.2901V4.3877H28.2703V5.72741H25.2901V8.60779H29.04V9.94751H23.1191V0.569518Z" fill="#636363"/>
<path d="M31.9665 0.569518H34.9072L37.1572 9.94751H34.9862L34.5914 8.08531V8.1121H32.1244L31.7297 9.94751H29.7166L31.9665 0.569518ZM34.3349 6.83937L33.3678 2.20397H33.3283L32.381 6.83937H34.3349Z" fill="#636363"/>
<path d="M38.2104 0.569518H41.4274C42.5458 0.569518 43.3616 0.748146 43.8747 1.1054C44.3879 1.45373 44.6445 1.99408 44.6445 2.72646V3.30253C44.6445 4.27606 44.1708 4.89232 43.2234 5.15134V5.17813C43.7497 5.28531 44.1182 5.50413 44.3287 5.83459C44.5524 6.16505 44.6642 6.60716 44.6642 7.1609V8.80875C44.6642 9.07669 44.6774 9.29551 44.7037 9.46521C44.73 9.62598 44.7958 9.78674 44.901 9.94751H42.6906C42.6116 9.79567 42.559 9.65277 42.5327 9.5188C42.5064 9.38483 42.4932 9.14368 42.4932 8.79535V7.08052C42.4932 6.65181 42.3879 6.35261 42.1774 6.18291C41.9801 6.01322 41.6314 5.92837 41.1314 5.92837H40.3814V9.94751H38.2104V0.569518ZM41.1709 4.58866C41.6051 4.58866 41.9274 4.51274 42.138 4.36091C42.3616 4.20907 42.4735 3.95453 42.4735 3.59727V2.87382C42.4735 2.53443 42.3814 2.28882 42.1972 2.13698C42.0261 1.98515 41.7498 1.90923 41.3682 1.90923H40.3814V4.58866H41.1709Z" fill="#636363"/>
<path d="M49.2296 10.0815C48.1902 10.0815 47.3941 9.88052 46.8415 9.47861C46.302 9.07669 46.0323 8.50955 46.0323 7.77717V2.73985C46.0323 2.00748 46.302 1.44033 46.8415 1.03842C47.3941 0.636504 48.1902 0.435547 49.2296 0.435547C50.269 0.435547 51.0585 0.636504 51.598 1.03842C52.1506 1.44033 52.4269 2.00748 52.4269 2.73985V3.73124H50.3743V2.64607C50.3743 2.06553 50.0125 1.77526 49.2888 1.77526C48.5651 1.77526 48.2033 2.06553 48.2033 2.64607V7.88435C48.2033 8.45596 48.5651 8.74177 49.2888 8.74177C50.0125 8.74177 50.3743 8.45596 50.3743 7.88435V6.45086H52.4269V7.77717C52.4269 8.50955 52.1506 9.07669 51.598 9.47861C51.0585 9.88052 50.269 10.0815 49.2296 10.0815Z" fill="#636363"/>
<path d="M53.7258 0.569518H55.8968V4.3877H58.2256V0.569518H60.3966V9.94751H58.2256V5.72741H55.8968V9.94751H53.7258V0.569518Z" fill="#636363"/>
<path d="M68.2335 10.0815C67.194 10.0815 66.398 9.88052 65.8454 9.47861C65.3059 9.07669 65.0362 8.50955 65.0362 7.77717V2.73985C65.0362 2.00748 65.3059 1.44033 65.8454 1.03842C66.398 0.636504 67.194 0.435547 68.2335 0.435547C69.2729 0.435547 70.0624 0.636504 70.6018 1.03842C71.1544 1.44033 71.4307 2.00748 71.4307 2.73985V3.73124H69.3782V2.64607C69.3782 2.06553 69.0163 1.77526 68.2927 1.77526C67.569 1.77526 67.2072 2.06553 67.2072 2.64607V7.88435C67.2072 8.45596 67.569 8.74177 68.2927 8.74177C69.0163 8.74177 69.3782 8.45596 69.3782 7.88435V6.45086H71.4307V7.77717C71.4307 8.50955 71.1544 9.07669 70.6018 9.47861C70.0624 9.88052 69.2729 10.0815 68.2335 10.0815Z" fill="#636363"/>
<path d="M72.7296 0.569518H78.6505V1.90923H74.9006V4.3877H77.8808V5.72741H74.9006V8.60779H78.6505V9.94751H72.7296V0.569518Z" fill="#636363"/>
<path d="M79.8995 0.569518H82.6231L84.7349 6.18291H84.7743V0.569518H86.7085V9.94751H84.4783L81.8731 3.10157H81.8336V9.94751H79.8995V0.569518Z" fill="#636363"/>
<path d="M90.0194 1.90923H87.7497V0.569518H94.4601V1.90923H92.1904V9.94751H90.0194V1.90923Z" fill="#636363"/>
<path d="M95.5112 0.569518H98.7282C99.8466 0.569518 100.662 0.748146 101.175 1.1054C101.689 1.45373 101.945 1.99408 101.945 2.72646V3.30253C101.945 4.27606 101.472 4.89232 100.524 5.15134V5.17813C101.05 5.28531 101.419 5.50413 101.629 5.83459C101.853 6.16505 101.965 6.60716 101.965 7.1609V8.80875C101.965 9.07669 101.978 9.29551 102.004 9.46521C102.031 9.62598 102.097 9.78674 102.202 9.94751H99.9913C99.9124 9.79567 99.8597 9.65277 99.8334 9.5188C99.8071 9.38483 99.7939 9.14368 99.7939 8.79535V7.08052C99.7939 6.65181 99.6887 6.35261 99.4782 6.18291C99.2808 6.01322 98.9321 5.92837 98.4322 5.92837H97.6822V9.94751H95.5112V0.569518ZM98.4716 4.58866C98.9058 4.58866 99.2282 4.51274 99.4387 4.36091C99.6624 4.20907 99.7742 3.95453 99.7742 3.59727V2.87382C99.7742 2.53443 99.6821 2.28882 99.4979 2.13698C99.3269 1.98515 99.0506 1.90923 98.669 1.90923H97.6822V4.58866H98.4716Z" fill="#636363"/>
<path d="M103.471 0.569518H109.392V1.90923H105.642V4.3877H108.622V5.72741H105.642V8.60779H109.392V9.94751H103.471V0.569518Z" fill="#636363"/>
</svg>
