<svg width="15" height="15" viewBox="0 0 15 15" fill="none" xmlns="http://www.w3.org/2000/svg">
<path d="M12.193 0.628808C12.2958 0.671385 12.3837 0.743492 12.4455 0.836008C12.5073 0.928524 12.5403 1.03729 12.5403 1.14856V4.33081C12.5403 4.47999 12.481 4.62307 12.3755 4.72855C12.27 4.83404 12.127 4.89331 11.9778 4.89331H8.79552C8.68434 4.89321 8.57569 4.86017 8.48327 4.79835C8.39086 4.73654 8.31884 4.64872 8.27631 4.546C8.23377 4.44328 8.22264 4.33025 8.2443 4.22121C8.26596 4.11216 8.31946 4.01197 8.39802 3.93331L9.59952 2.73031C8.49586 2.26814 7.27058 2.18291 6.11356 2.48783C4.95654 2.79275 3.9324 3.47079 3.19987 4.41687C2.46734 5.36294 2.06731 6.52423 2.0618 7.72074C2.05628 8.91725 2.44558 10.0822 3.16936 11.035C3.89314 11.9877 4.91098 12.6752 6.06513 12.9908C7.21929 13.3064 8.44531 13.2324 9.55319 12.7805C10.6611 12.3285 11.5889 11.5237 12.193 10.4909C12.797 9.45799 13.0435 8.25474 12.8943 7.06756C12.8788 6.92112 12.9214 6.77446 13.0129 6.65907C13.1044 6.54368 13.2374 6.46876 13.3835 6.4504C13.5296 6.43204 13.6771 6.4717 13.7943 6.56087C13.9115 6.65004 13.989 6.7816 14.0103 6.92731C14.1928 8.37943 13.8847 9.85091 13.135 11.1078C12.3852 12.3647 11.2368 13.335 9.87227 13.8642C8.50777 14.3935 7.0055 14.4515 5.60427 14.0289C4.20304 13.6063 2.98328 12.7275 2.13889 11.5321C1.2945 10.3367 0.873938 8.89332 0.944065 7.43144C1.01419 5.96957 1.57098 4.57309 2.52592 3.46399C3.48086 2.3549 4.77914 1.59685 6.21439 1.31035C7.64963 1.02386 9.13945 1.22535 10.447 1.88281L11.5795 0.750308C11.6582 0.671765 11.7584 0.618305 11.8675 0.59668C11.9765 0.575055 12.0903 0.586235 12.193 0.628808Z" fill="#FFDAA3"/>
</svg>
