<svg width="22" height="22" viewBox="0 0 22 22" fill="none" xmlns="http://www.w3.org/2000/svg">
<rect width="22" height="22" rx="4" fill="#767676" fill-opacity="0.5"/>
<path d="M15.64 9.39687H14.2V7.47687C14.2 5.15927 13.132 3.79688 11 3.79688C8.86722 3.79688 7.80002 5.15927 7.80002 7.47687V9.39687H6.20002C5.75762 9.39687 5.40002 9.91367 5.40002 10.3561V16.5969C5.40002 17.0361 5.74242 17.5081 6.16082 17.6425L7.11842 17.9521C7.62634 18.1001 8.15116 18.1824 8.68002 18.1969H13.32C13.8487 18.1825 14.3733 18.1 14.8808 17.9513L15.8376 17.6417C16.2568 17.5081 16.6 17.0361 16.6 16.5969V10.3561C16.6 9.91367 16.0816 9.39687 15.64 9.39687ZM12.6 9.39687H9.40002V7.15607C9.40002 6.00007 10.0376 5.39687 11 5.39687C11.9624 5.39687 12.6 6.00007 12.6 7.15607V9.39687Z" fill="white"/>
</svg>
