<svg width="22" height="22" viewBox="0 0 22 22" fill="none" xmlns="http://www.w3.org/2000/svg">
<path d="M16.5 14.7387C15.8033 14.7387 15.18 15.0137 14.7033 15.4445L8.1675 11.6404C8.21333 11.4295 8.25 11.2187 8.25 10.9987C8.25 10.7787 8.21333 10.5679 8.1675 10.357L14.63 6.58953C15.125 7.04786 15.7758 7.33203 16.5 7.33203C18.0217 7.33203 19.25 6.1037 19.25 4.58203C19.25 3.06036 18.0217 1.83203 16.5 1.83203C14.9783 1.83203 13.75 3.06036 13.75 4.58203C13.75 4.80203 13.7867 5.01286 13.8325 5.2237L7.37 8.9912C6.875 8.53287 6.22417 8.2487 5.5 8.2487C3.97833 8.2487 2.75 9.47703 2.75 10.9987C2.75 12.5204 3.97833 13.7487 5.5 13.7487C6.22417 13.7487 6.875 13.4645 7.37 13.0062L13.8967 16.8195C13.8508 17.012 13.8233 17.2137 13.8233 17.4154C13.8233 18.8912 15.0242 20.092 16.5 20.092C17.9758 20.092 19.1767 18.8912 19.1767 17.4154C19.1767 15.9395 17.9758 14.7387 16.5 14.7387ZM16.5 3.66536C17.0042 3.66536 17.4167 4.07786 17.4167 4.58203C17.4167 5.0862 17.0042 5.4987 16.5 5.4987C15.9958 5.4987 15.5833 5.0862 15.5833 4.58203C15.5833 4.07786 15.9958 3.66536 16.5 3.66536ZM5.5 11.9154C4.99583 11.9154 4.58333 11.5029 4.58333 10.9987C4.58333 10.4945 4.99583 10.082 5.5 10.082C6.00417 10.082 6.41667 10.4945 6.41667 10.9987C6.41667 11.5029 6.00417 11.9154 5.5 11.9154ZM16.5 18.3504C15.9958 18.3504 15.5833 17.9379 15.5833 17.4337C15.5833 16.9295 15.9958 16.517 16.5 16.517C17.0042 16.517 17.4167 16.9295 17.4167 17.4337C17.4167 17.9379 17.0042 18.3504 16.5 18.3504Z" fill="black"/>
</svg>
