<svg width="22" height="22" viewBox="0 0 22 22" fill="none" xmlns="http://www.w3.org/2000/svg">
<path d="M5.85756 13.687C6.65973 13.6824 7.43126 13.3784 8.02089 12.8345L13.7592 16.1161C13.6861 16.3694 13.6491 16.6317 13.6492 16.8953C13.6433 17.6392 13.894 18.3624 14.3589 18.9432C14.8238 19.524 15.4747 19.9268 16.2018 20.0838C16.929 20.2409 17.6881 20.1426 18.3513 19.8055C19.0144 19.4683 19.5412 18.913 19.8428 18.233C20.1445 17.5529 20.2026 16.7897 20.0074 16.0719C19.8122 15.354 19.3756 14.7253 18.7711 14.2917C18.1666 13.858 17.4312 13.6459 16.6886 13.691C15.9461 13.7362 15.2417 14.0358 14.6942 14.5395L8.95589 11.2578C9.02514 11.0319 9.06217 10.7974 9.06589 10.5611L14.7034 7.33446C15.2479 7.82657 15.9451 8.11646 16.6781 8.15552C17.411 8.19459 18.1351 7.98044 18.7288 7.54901C19.3226 7.11758 19.75 6.49509 19.9393 5.78596C20.1286 5.07682 20.0683 4.32416 19.7685 3.65421C19.4687 2.98426 18.9477 2.43776 18.2928 2.10637C17.6379 1.77498 16.889 1.67886 16.1716 1.83412C15.4542 1.98938 14.8121 2.38658 14.3528 2.95911C13.8936 3.53164 13.6452 4.24468 13.6492 4.97863C13.6523 5.242 13.6893 5.50387 13.7592 5.7578L8.54339 8.73696C8.24117 8.26942 7.8225 7.88857 7.32852 7.63183C6.83454 7.3751 6.28225 7.25132 5.72595 7.27267C5.16964 7.29401 4.62847 7.45975 4.15561 7.75358C3.68275 8.04741 3.29449 8.45923 3.02899 8.94855C2.76349 9.43787 2.62988 9.98786 2.6413 10.5445C2.65272 11.1011 2.80878 11.6451 3.09413 12.1231C3.37948 12.6011 3.7843 12.9967 4.26882 13.2709C4.75333 13.5451 5.30084 13.6885 5.85756 13.687ZM16.8576 15.5203C17.1295 15.5203 17.3953 15.6009 17.6215 15.752C17.8476 15.9031 18.0238 16.1179 18.1279 16.3691C18.232 16.6204 18.2592 16.8968 18.2061 17.1635C18.1531 17.4303 18.0221 17.6753 17.8298 17.8676C17.6375 18.0599 17.3925 18.1908 17.1258 18.2439C16.8591 18.2969 16.5826 18.2697 16.3314 18.1656C16.0801 18.0616 15.8654 17.8853 15.7143 17.6592C15.5632 17.4331 15.4826 17.1672 15.4826 16.8953C15.4826 16.5306 15.6274 16.1809 15.8853 15.923C16.1431 15.6652 16.4929 15.5203 16.8576 15.5203ZM16.8576 3.60363C17.1295 3.60363 17.3953 3.68427 17.6215 3.83536C17.8476 3.98645 18.0238 4.20119 18.1279 4.45244C18.232 4.70369 18.2592 4.98016 18.2061 5.24688C18.1531 5.5136 18.0221 5.75861 17.8298 5.9509C17.6375 6.1432 17.3925 6.27416 17.1258 6.32721C16.8591 6.38026 16.5826 6.35304 16.3314 6.24896C16.0801 6.14489 15.8654 5.96866 15.7143 5.74254C15.5632 5.51642 15.4826 5.25058 15.4826 4.97863C15.4826 4.61396 15.6274 4.26422 15.8853 4.00636C16.1431 3.7485 16.4929 3.60363 16.8576 3.60363ZM5.85756 9.10363C6.12951 9.10363 6.39535 9.18427 6.62147 9.33536C6.84758 9.48645 7.02382 9.70119 7.12789 9.95244C7.23196 10.2037 7.25919 10.4802 7.20614 10.7469C7.15308 11.0136 7.02213 11.2586 6.82983 11.4509C6.63753 11.6432 6.39253 11.7742 6.12581 11.8272C5.85908 11.8803 5.58261 11.853 5.33137 11.749C5.08012 11.6449 4.86537 11.4687 4.71429 11.2425C4.5632 11.0164 4.48256 10.7506 4.48256 10.4786C4.48256 10.114 4.62742 9.76422 4.88528 9.50636C5.14315 9.2485 5.49288 9.10363 5.85756 9.10363Z" fill="#515259"/>
</svg>
