<svg width="18" height="19" viewBox="0 0 18 19" fill="none" xmlns="http://www.w3.org/2000/svg">
<g clip-path="url(#clip0_5176_95299)">
<path d="M12.3958 13.3054L17.7921 7.99788L17.8605 7.91988C17.9618 7.78392 18.0106 7.61599 17.9981 7.44692C17.9855 7.27786 17.9124 7.119 17.7921 6.99949L12.3958 1.69437L12.3214 1.63078C11.8894 1.30678 11.2534 1.61878 11.2534 2.19357V4.74953L10.9834 4.76753C6.7079 5.10592 4.20354 7.81188 3.60595 12.7198C3.52915 13.3498 4.25154 13.7446 4.71953 13.327C6.4367 11.7934 8.21148 10.8406 10.0534 10.459C10.3486 10.3978 10.645 10.351 10.9438 10.3186L11.2534 10.291V12.8062L11.2594 12.9046C11.3314 13.4482 11.9902 13.7038 12.3958 13.3054ZM11.071 5.96391L12.4534 5.87151V3.43195L16.5885 7.49749L12.4534 11.5654V8.97706L10.8262 9.12346H10.8166C8.77307 9.34306 6.8447 10.1614 5.02432 11.5258C5.38192 9.91905 5.99271 8.71067 6.7955 7.84548C7.79148 6.7715 9.18346 6.11391 11.071 5.96271V5.96391ZM2.99995 2.69996C2.20432 2.69996 1.44127 3.01602 0.878666 3.57863C0.316066 4.14123 0 4.90428 0 5.69991V15.2998C0 16.0954 0.316066 16.8585 0.878666 17.4211C1.44127 17.9837 2.20432 18.2997 2.99995 18.2997H12.5998C13.3954 18.2997 14.1585 17.9837 14.7211 17.4211C15.2837 16.8585 15.5998 16.0954 15.5998 15.2998V14.0998C15.5998 13.9407 15.5365 13.788 15.424 13.6755C15.3115 13.563 15.1589 13.4998 14.9998 13.4998C14.8406 13.4998 14.688 13.563 14.5755 13.6755C14.463 13.788 14.3998 13.9407 14.3998 14.0998V15.2998C14.3998 15.7772 14.2101 16.235 13.8726 16.5725C13.535 16.9101 13.0772 17.0997 12.5998 17.0997H2.99995C2.52257 17.0997 2.06474 16.9101 1.72718 16.5725C1.38962 16.235 1.19998 15.7772 1.19998 15.2998V5.69991C1.19998 5.22253 1.38962 4.7647 1.72718 4.42714C2.06474 4.08958 2.52257 3.89994 2.99995 3.89994H6.5999C6.75903 3.89994 6.91164 3.83673 7.02416 3.72421C7.13668 3.61169 7.19989 3.45908 7.19989 3.29995C7.19989 3.14082 7.13668 2.98821 7.02416 2.87569C6.91164 2.76317 6.75903 2.69996 6.5999 2.69996H2.99995Z" fill="url(#paint0_linear_5176_95299)"/>
</g>
<defs>
<linearGradient id="paint0_linear_5176_95299" x1="19.1544" y1="-4.96233" x2="6.28222" y2="22.2485" gradientUnits="userSpaceOnUse">
<stop stop-color="#CE1B69"/>
<stop offset="1" stop-color="#FF328B" stop-opacity="0.71"/>
</linearGradient>
<clipPath id="clip0_5176_95299">
<rect width="18" height="18" fill="white" transform="translate(0 0.5)"/>
</clipPath>
</defs>
</svg>
