<?xml version="1.0" encoding="UTF-8"?>
<svg version="1.1" xmlns="http://www.w3.org/2000/svg" width="64" height="64">
    <path
        d="M0 0 C7.76675969 5.2863574 13.38019908 11.09474305 15.95703125 20.33203125 C16.97849667 31.79382348 16.07180915 40.5604769 8.58203125 49.64453125 C3.05238769 55.57504449 -2.65763398 58.94121385 -10.8125 59.66796875 C-22.2900419 59.92562211 -29.79553736 58.0735478 -38.3203125 50.125 C-45.07902557 43.09042109 -46.45687681 35.78457741 -46.40649414 26.37695312 C-46.15072802 16.47368908 -42.06373178 10.07747024 -35.04296875 3.33203125 C-25.66852822 -3.93794304 -10.69212687 -5.78560593 0 0 Z "
        fill="#E05261" transform="translate(47.04296875,3.66796875)" />
    <path
        d="M0 0 C9.24 0 18.48 0 28 0 C28 9.24 28 18.48 28 28 C18.76 28 9.52 28 0 28 C0 18.76 0 9.52 0 0 Z "
        fill="#FFFFFF" transform="translate(18,18)" />
</svg>