<svg width="12" height="12" viewBox="0 0 12 12" fill="none" xmlns="http://www.w3.org/2000/svg">
<path d="M9.48 4.80156H8.4V3.36156C8.4 1.62336 7.599 0.601562 6 0.601562C4.4004 0.601562 3.6 1.62336 3.6 3.36156V4.80156H2.4C2.0682 4.80156 1.8 5.18916 1.8 5.52096V10.2016C1.8 10.531 2.0568 10.885 2.3706 10.9858L3.0888 11.218C3.46974 11.329 3.86336 11.3907 4.26 11.4016H7.74C8.1365 11.3908 8.52996 11.3289 8.9106 11.2174L9.6282 10.9852C9.9426 10.885 10.2 10.531 10.2 10.2016V5.52096C10.2 5.18916 9.8112 4.80156 9.48 4.80156ZM7.2 4.80156H4.8V3.12096C4.8 2.25396 5.2782 1.80156 6 1.80156C6.7218 1.80156 7.2 2.25396 7.2 3.12096V4.80156Z" fill="white"/>
</svg>
