<svg width="18" height="19" viewBox="0 0 18 19" fill="none" xmlns="http://www.w3.org/2000/svg">
<g clip-path="url(#clip0_6155_38999)">
<path fill-rule="evenodd" clip-rule="evenodd" d="M4.8 1.4C4.56131 1.4 4.33239 1.49482 4.1636 1.6636C3.99482 1.83239 3.9 2.06131 3.9 2.3V14.9C3.9 15.1387 3.99482 15.3676 4.1636 15.5364C4.33239 15.7052 4.56131 15.8 4.8 15.8H9.75V16.7H4.8C4.32261 16.7 3.86477 16.5104 3.52721 16.1728C3.18964 15.8352 3 15.3774 3 14.9V2.3C3 1.82261 3.18964 1.36477 3.52721 1.02721C3.86477 0.689642 4.32261 0.5 4.8 0.5H13.8C14.2774 0.5 14.7352 0.689642 15.0728 1.02721C15.4104 1.36477 15.6 1.82261 15.6 2.3V14.9C15.6 15.3774 15.4104 15.8352 15.0728 16.1728C14.7352 16.5104 14.2774 16.7 13.8 16.7H12.45V15.8H13.8C14.0387 15.8 14.2676 15.7052 14.4364 15.5364C14.6052 15.3676 14.7 15.1387 14.7 14.9V2.3C14.7 2.06131 14.6052 1.83239 14.4364 1.6636C14.2676 1.49482 14.0387 1.4 13.8 1.4H4.8Z" fill="url(#paint0_linear_6155_38999)"/>
<path fill-rule="evenodd" clip-rule="evenodd" d="M6.5998 3.64922C6.5998 3.52987 6.64721 3.41541 6.73161 3.33102C6.816 3.24663 6.93046 3.19922 7.0498 3.19922H11.5498C11.6692 3.19922 11.7836 3.24663 11.868 3.33102C11.9524 3.41541 11.9998 3.52987 11.9998 3.64922C11.9998 3.76857 11.9524 3.88303 11.868 3.96742C11.7836 4.05181 11.6692 4.09922 11.5498 4.09922H7.0498C6.93046 4.09922 6.816 4.05181 6.73161 3.96742C6.64721 3.88303 6.5998 3.76857 6.5998 3.64922ZM4.7998 6.34922C4.7998 6.22987 4.84722 6.11541 4.93161 6.03102C5.016 5.94663 5.13046 5.89922 5.2498 5.89922H13.3498C13.4692 5.89922 13.5836 5.94663 13.668 6.03102C13.7524 6.11541 13.7998 6.22987 13.7998 6.34922C13.7998 6.46857 13.7524 6.58303 13.668 6.66742C13.5836 6.75181 13.4692 6.79922 13.3498 6.79922H5.2498C5.13046 6.79922 5.016 6.75181 4.93161 6.66742C4.84722 6.58303 4.7998 6.46857 4.7998 6.34922ZM4.7998 8.14922C4.7998 8.02987 4.84722 7.91541 4.93161 7.83102C5.016 7.74663 5.13046 7.69922 5.2498 7.69922H13.3498C13.4692 7.69922 13.5836 7.74663 13.668 7.83102C13.7524 7.91541 13.7998 8.02987 13.7998 8.14922C13.7998 8.26857 13.7524 8.38303 13.668 8.46742C13.5836 8.55181 13.4692 8.59922 13.3498 8.59922H5.2498C5.13046 8.59922 5.016 8.55181 4.93161 8.46742C4.84722 8.38303 4.7998 8.26857 4.7998 8.14922ZM4.7998 9.94922C4.7998 9.82987 4.84722 9.71541 4.93161 9.63102C5.016 9.54663 5.13046 9.49922 5.2498 9.49922H13.3498C13.4692 9.49922 13.5836 9.54663 13.668 9.63102C13.7524 9.71541 13.7998 9.82987 13.7998 9.94922C13.7998 10.0686 13.7524 10.183 13.668 10.2674C13.5836 10.3518 13.4692 10.3992 13.3498 10.3992H5.2498C5.13046 10.3992 5.016 10.3518 4.93161 10.2674C4.84722 10.183 4.7998 10.0686 4.7998 9.94922ZM11.0998 14.4492C11.3385 14.4492 11.5674 14.3544 11.7362 14.1856C11.905 14.0168 11.9998 13.7879 11.9998 13.5492C11.9998 13.3105 11.905 13.0816 11.7362 12.9128C11.5674 12.744 11.3385 12.6492 11.0998 12.6492C10.8611 12.6492 10.6322 12.744 10.4634 12.9128C10.2946 13.0816 10.1998 13.3105 10.1998 13.5492C10.1998 13.7879 10.2946 14.0168 10.4634 14.1856C10.6322 14.3544 10.8611 14.4492 11.0998 14.4492ZM11.0998 15.3492C11.5772 15.3492 12.035 15.1596 12.3726 14.822C12.7102 14.4844 12.8998 14.0266 12.8998 13.5492C12.8998 13.0718 12.7102 12.614 12.3726 12.2764C12.035 11.9389 11.5772 11.7492 11.0998 11.7492C10.6224 11.7492 10.1646 11.9389 9.82701 12.2764C9.48945 12.614 9.2998 13.0718 9.2998 13.5492C9.2998 14.0266 9.48945 14.4844 9.82701 14.822C10.1646 15.1596 10.6224 15.3492 11.0998 15.3492Z" fill="url(#paint1_linear_6155_38999)"/>
<path fill-rule="evenodd" clip-rule="evenodd" d="M10.65 14.4492H9.75V18.4992L11.1 17.8242L12.45 18.4992V14.4492H11.55V17.043L11.1 16.818L10.65 17.043V14.4492Z" fill="url(#paint2_linear_6155_38999)"/>
</g>
<defs>
<linearGradient id="paint0_linear_6155_38999" x1="16.4081" y1="-5.73163" x2="1.71985" y2="16.8079" gradientUnits="userSpaceOnUse">
<stop stop-color="#CE1B69"/>
<stop offset="1" stop-color="#FF328B" stop-opacity="0.71"/>
</linearGradient>
<linearGradient id="paint1_linear_6155_38999" x1="14.377" y1="-1.47451" x2="3.15295" y2="14.9289" gradientUnits="userSpaceOnUse">
<stop stop-color="#CE1B69"/>
<stop offset="1" stop-color="#FF328B" stop-opacity="0.71"/>
</linearGradient>
<linearGradient id="paint2_linear_6155_38999" x1="12.6232" y1="12.8913" x2="8.75542" y2="17.9786" gradientUnits="userSpaceOnUse">
<stop stop-color="#CE1B69"/>
<stop offset="1" stop-color="#FF328B" stop-opacity="0.71"/>
</linearGradient>
<clipPath id="clip0_6155_38999">
<rect width="18" height="18" fill="white" transform="translate(0 0.5)"/>
</clipPath>
</defs>
</svg>
