<svg width="22" height="22" viewBox="0 0 22 22" fill="none" xmlns="http://www.w3.org/2000/svg">
<path d="M10.9997 18.332C11.2428 18.332 11.4759 18.2355 11.6479 18.0635C11.8198 17.8916 11.9163 17.6585 11.9163 17.4154C11.9163 17.1722 11.8198 16.9391 11.6479 16.7672C11.4759 16.5953 11.2428 16.4987 10.9997 16.4987C10.7566 16.4987 10.5234 16.5953 10.3515 16.7672C10.1796 16.9391 10.083 17.1722 10.083 17.4154C10.083 17.6585 10.1796 17.8916 10.3515 18.0635C10.5234 18.2355 10.7566 18.332 10.9997 18.332ZM10.9997 11.9154C11.2428 11.9154 11.4759 11.8188 11.6479 11.6469C11.8198 11.475 11.9163 11.2418 11.9163 10.9987C11.9163 10.7556 11.8198 10.5224 11.6479 10.3505C11.4759 10.1786 11.2428 10.082 10.9997 10.082C10.7566 10.082 10.5234 10.1786 10.3515 10.3505C10.1796 10.5224 10.083 10.7556 10.083 10.9987C10.083 11.2418 10.1796 11.475 10.3515 11.6469C10.5234 11.8188 10.7566 11.9154 10.9997 11.9154ZM10.9997 5.4987C11.2428 5.4987 11.4759 5.40212 11.6479 5.23021C11.8198 5.0583 11.9163 4.82515 11.9163 4.58203C11.9163 4.33892 11.8198 4.10576 11.6479 3.93385C11.4759 3.76194 11.2428 3.66536 10.9997 3.66536C10.7566 3.66536 10.5234 3.76194 10.3515 3.93385C10.1796 4.10576 10.083 4.33892 10.083 4.58203C10.083 4.82515 10.1796 5.0583 10.3515 5.23021C10.5234 5.40212 10.7566 5.4987 10.9997 5.4987Z" stroke="white" stroke-width="1.83333" stroke-linecap="round" stroke-linejoin="round"/>
</svg>
