<svg width="10" height="10" viewBox="0 0 10 10" fill="none" xmlns="http://www.w3.org/2000/svg">
    <g clip-path="url(#clip0_6544_108351)">
        <path
            d="M5 0.78125C4.16561 0.78125 3.34996 1.02868 2.65619 1.49224C1.96242 1.9558 1.42169 2.61468 1.10239 3.38555C0.783078 4.15643 0.699533 5.00468 0.862314 5.82304C1.0251 6.64139 1.42689 7.3931 2.0169 7.98311C2.6069 8.57311 3.35861 8.97491 4.17696 9.13769C4.99532 9.30047 5.84357 9.21692 6.61445 8.89762C7.38532 8.57831 8.0442 8.03758 8.50776 7.34381C8.97133 6.65004 9.21875 5.83439 9.21875 5C9.21751 3.8815 8.77264 2.80916 7.98174 2.01826C7.19084 1.22736 6.1185 0.782491 5 0.78125ZM5 8.28125C4.35103 8.28125 3.71664 8.08881 3.17704 7.72826C2.63744 7.36771 2.21687 6.85525 1.96852 6.25568C1.72017 5.65611 1.65519 4.99636 1.7818 4.35986C1.90841 3.72336 2.22092 3.1387 2.67981 2.67981C3.1387 2.22091 3.72336 1.90841 4.35986 1.7818C4.99636 1.65519 5.65611 1.72017 6.25568 1.96852C6.85525 2.21687 7.36771 2.63744 7.72826 3.17704C8.08881 3.71663 8.28125 4.35103 8.28125 5C8.28032 5.86996 7.93432 6.70401 7.31917 7.31917C6.70402 7.93432 5.86996 8.28032 5 8.28125ZM7.65625 5C7.65625 5.12432 7.60687 5.24355 7.51896 5.33146C7.43105 5.41936 7.31182 5.46875 7.1875 5.46875H5C4.87568 5.46875 4.75645 5.41936 4.66855 5.33146C4.58064 5.24355 4.53125 5.12432 4.53125 5V2.8125C4.53125 2.68818 4.58064 2.56895 4.66855 2.48104C4.75645 2.39314 4.87568 2.34375 5 2.34375C5.12432 2.34375 5.24355 2.39314 5.33146 2.48104C5.41937 2.56895 5.46875 2.68818 5.46875 2.8125V4.53125H7.1875C7.31182 4.53125 7.43105 4.58064 7.51896 4.66854C7.60687 4.75645 7.65625 4.87568 7.65625 5Z"
            fill="black" />
    </g>
    <defs>
        <clipPath id="clip0_6544_108351">
            <rect width="10" height="10" fill="white" />
        </clipPath>
    </defs>
</svg>
    