<?xml version="1.0" encoding="UTF-8"?>
<svg version="1.1" xmlns="http://www.w3.org/2000/svg" width="64" height="64">
<path d="M0 0 C3.54122827 -0.14601614 7.08167644 -0.2343056 10.625 -0.3125 C11.62402344 -0.35439453 12.62304688 -0.39628906 13.65234375 -0.43945312 C20.56254886 -0.55386049 23.01247367 0.35099966 28 5 C31.26370226 5.76642791 31.26370226 5.76642791 34.7109375 5.70703125 C35.95488281 5.73603516 37.19882812 5.76503906 38.48046875 5.79492188 C40.40826172 5.80362305 40.40826172 5.80362305 42.375 5.8125 C43.68339844 5.83763672 44.99179687 5.86277344 46.33984375 5.88867188 C49.56019823 5.94743747 52.77919642 5.9837975 56 6 C56 7.32 56 8.64 56 10 C57.98 10 59.96 10 62 10 C62.02465098 14.96622349 62.04283649 19.93241166 62.05493164 24.89868164 C62.0599719 26.58944316 62.06680405 28.28020029 62.07543945 29.97094727 C62.08751857 32.39600707 62.09323123 34.82100944 62.09765625 37.24609375 C62.10281754 38.00651474 62.10797882 38.76693573 62.11329651 39.55039978 C62.11349238 41.3673257 62.06197277 43.18413127 62 45 C61 46 61 46 58.40795898 46.11352539 C57.28204346 46.10828857 56.15612793 46.10305176 54.99609375 46.09765625 C53.78115234 46.09443359 52.56621094 46.09121094 51.31445312 46.08789062 C50.03505859 46.07951172 48.75566406 46.07113281 47.4375 46.0625 C46.15423828 46.05798828 44.87097656 46.05347656 43.54882812 46.04882812 C40.36583978 46.03699545 37.18294238 46.02051068 34 46 C34 48.64 34 51.28 34 54 C31.36 54 28.72 54 26 54 C26 51.36 26 48.72 26 46 C25.2479126 46.00523682 24.4958252 46.01047363 23.72094727 46.01586914 C20.33480658 46.03657227 16.94867916 46.04963877 13.5625 46.0625 C11.78649414 46.07506836 11.78649414 46.07506836 9.97460938 46.08789062 C8.84990234 46.09111328 7.72519531 46.09433594 6.56640625 46.09765625 C5.00321655 46.10551147 5.00321655 46.10551147 3.40844727 46.11352539 C1 46 1 46 0 45 C-0.0928726 43.58774954 -0.11746772 42.17091066 -0.11352539 40.75561523 C-0.11344986 39.85475693 -0.11337433 38.95389862 -0.11329651 38.02574158 C-0.10813522 37.04658279 -0.10297394 36.06742401 -0.09765625 35.05859375 C-0.0962413 34.06118668 -0.09482635 33.0637796 -0.09336853 32.03614807 C-0.08775114 28.83656876 -0.07519571 25.63705831 -0.0625 22.4375 C-0.05748724 20.27408955 -0.05292395 18.11067801 -0.04882812 15.94726562 C-0.03777607 10.63148675 -0.02102104 5.31574829 0 0 Z M2 3 C1.91209025 5.29151417 1.89305962 7.58572524 1.90234375 9.87890625 C1.9037587 10.5655687 1.90517365 11.25223114 1.90663147 11.95970154 C1.91224521 14.16067801 1.92479993 16.36155409 1.9375 18.5625 C1.94251324 20.05143083 1.94707645 21.54036324 1.95117188 23.02929688 C1.96136979 26.68626805 1.98094221 30.34302117 2 34 C9.26 34 16.52 34 24 34 C24 34.66 24 35.32 24 36 C16.74 36 9.48 36 2 36 C2 37.98 2 39.96 2 42 C3.79709564 44.21870993 3.79709564 44.21870993 6.24658203 44.22705078 C7.61339111 44.21134033 7.61339111 44.21134033 9.0078125 44.1953125 C10.48701172 44.18564453 10.48701172 44.18564453 11.99609375 44.17578125 C13.02863281 44.15902344 14.06117187 44.14226563 15.125 44.125 C16.16527344 44.11597656 17.20554687 44.10695312 18.27734375 44.09765625 C20.85165997 44.07403867 23.42585838 44.03816684 26 44 C26 39.38 26 34.76 26 30 C24.35 30 22.7 30 21 30 C20.34 29.34 19.68 28.68 19 28 C19.25461278 23.74230859 20.80317975 21.60505506 23.75 18.625 C24.42546875 17.91601562 25.1009375 17.20703125 25.796875 16.4765625 C28 15 28 15 30.4921875 15.0390625 C33.44862413 16.1719027 35.12718929 17.52725781 37.375 19.75 C38.08398438 20.42546875 38.79296875 21.1009375 39.5234375 21.796875 C41 24 41 24 40.7265625 26.765625 C40.48679688 27.50296875 40.24703125 28.2403125 40 29 C35.125 30 35.125 30 34 30 C34 34.62 34 39.24 34 44 C40.6 44 47.2 44 54 44 C54 41.36 54 38.72 54 36 C48.06 36 42.12 36 36 36 C36 35.34 36 34.68 36 34 C41.94 34 47.88 34 54 34 C54.0268245 29.85412418 54.04675315 25.70841962 54.0625 21.5625 C54.07506836 19.78649414 54.07506836 19.78649414 54.08789062 17.97460938 C54.09111328 16.84990234 54.09433594 15.72519531 54.09765625 14.56640625 C54.10289307 13.52427979 54.10812988 12.48215332 54.11352539 11.40844727 C54.27305556 9.04871253 54.27305556 9.04871253 53 8 C50.92493868 7.90247457 48.84686541 7.86794663 46.76953125 7.859375 C44.85237305 7.83037109 44.85237305 7.83037109 42.89648438 7.80078125 C40.85998204 7.77191551 38.82456135 7.75000291 36.7878418 7.74951172 C23.926287 7.72753957 23.926287 7.72753957 18 2 C14.15435904 1.36269347 14.15435904 1.36269347 10.1875 1.625 C9.50751953 1.63917969 8.82753906 1.65335938 8.12695312 1.66796875 C4.77588578 1.51749794 4.77588578 1.51749794 2 3 Z M56 12 C56 21.9 56 31.8 56 42 C57.32 42 58.64 42 60 42 C60 32.43 60 22.86 60 13 C58.68 12.67 57.36 12.34 56 12 Z M27.2734375 19.4609375 C26.33371094 20.40839844 26.33371094 20.40839844 25.375 21.375 C24.74335938 22.00148438 24.11171875 22.62796875 23.4609375 23.2734375 C21.78468592 24.87750953 21.78468592 24.87750953 22 27 C23.98 26.34 25.96 25.68 28 25 C28 33.91 28 42.82 28 52 C29.32 52 30.64 52 32 52 C32 43.09 32 34.18 32 25 C33.98 25.66 35.96 26.32 38 27 C36.44396229 23.18063472 34.04395069 20.73955562 31 18 C28.87750953 17.78468592 28.87750953 17.78468592 27.2734375 19.4609375 Z " fill="#000000" transform="translate(2,8)"/>
<path d="M0 0 C0.66 0 1.32 0 2 0 C2 1.32 2 2.64 2 4 C1.34 4 0.68 4 0 4 C0 2.68 0 1.36 0 0 Z " fill="#000000" transform="translate(52,46)"/>
<path d="M0 0 C0.66 0 1.32 0 2 0 C2 1.32 2 2.64 2 4 C1.34 4 0.68 4 0 4 C0 2.68 0 1.36 0 0 Z " fill="#000000" transform="translate(47,46)"/>
<path d="M0 0 C0.66 0 1.32 0 2 0 C2 1.32 2 2.64 2 4 C1.34 4 0.68 4 0 4 C0 2.68 0 1.36 0 0 Z " fill="#000000" transform="translate(42,46)"/>
<path d="M0 0 C0.66 0 1.32 0 2 0 C2 1.32 2 2.64 2 4 C1.34 4 0.68 4 0 4 C0 2.68 0 1.36 0 0 Z " fill="#000000" transform="translate(37,46)"/>
<path d="M0 0 C0.66 0 1.32 0 2 0 C2 1.32 2 2.64 2 4 C1.34 4 0.68 4 0 4 C0 2.68 0 1.36 0 0 Z " fill="#000000" transform="translate(25,46)"/>
<path d="M0 0 C0.66 0 1.32 0 2 0 C2 1.32 2 2.64 2 4 C1.34 4 0.68 4 0 4 C0 2.68 0 1.36 0 0 Z " fill="#000000" transform="translate(20,46)"/>
<path d="M0 0 C0.66 0 1.32 0 2 0 C2 1.32 2 2.64 2 4 C1.34 4 0.68 4 0 4 C0 2.68 0 1.36 0 0 Z " fill="#000000" transform="translate(15,46)"/>
<path d="M0 0 C0.66 0 1.32 0 2 0 C2 1.32 2 2.64 2 4 C1.34 4 0.68 4 0 4 C0 2.68 0 1.36 0 0 Z " fill="#000000" transform="translate(10,46)"/>
<path d="M0 0 C0.66 0 1.32 0 2 0 C2 1.32 2 2.64 2 4 C1.34 4 0.68 4 0 4 C0 2.68 0 1.36 0 0 Z " fill="#000000" transform="translate(5,46)"/>
</svg>
