<svg width="15" height="15" viewBox="0 0 15 15" fill="none" xmlns="http://www.w3.org/2000/svg">
    <path
        d="M7.5 1.875C8.16304 1.875 8.79893 2.13839 9.26777 2.60723C9.73661 3.07607 10 3.71196 10 4.375C10 4.83125 9.88125 5.25625 9.6625 5.625H11.25C11.8438 5.625 12.3438 6.04375 12.4688 6.6C13.725 11.6063 13.75 11.7375 13.75 11.875C13.75 12.2065 13.6183 12.5245 13.3839 12.7589C13.1495 12.9933 12.8315 13.125 12.5 13.125H2.5C2.16848 13.125 1.85054 12.9933 1.61612 12.7589C1.3817 12.5245 1.25 12.2065 1.25 11.875C1.25 11.7375 1.275 11.6063 2.53125 6.6C2.65625 6.04375 3.15625 5.625 3.75 5.625H5.3375C5.11408 5.2465 4.99744 4.81451 5 4.375C5 3.71196 5.26339 3.07607 5.73223 2.60723C6.20107 2.13839 6.83696 1.875 7.5 1.875ZM7.5 3.125C7.16848 3.125 6.85054 3.2567 6.61612 3.49112C6.3817 3.72554 6.25 4.04348 6.25 4.375C6.25 4.70652 6.3817 5.02446 6.61612 5.25888C6.85054 5.4933 7.16848 5.625 7.5 5.625C7.83152 5.625 8.14946 5.4933 8.38388 5.25888C8.6183 5.02446 8.75 4.70652 8.75 4.375C8.75 4.04348 8.6183 3.72554 8.38388 3.49112C8.14946 3.2567 7.83152 3.125 7.5 3.125Z"
        fill="#1D1E22" />
</svg>
    