<svg width="14" height="15" viewBox="0 0 14 15" fill="none" xmlns="http://www.w3.org/2000/svg">
<path d="M3.0625 3.5625C2.91332 3.5625 2.77024 3.62176 2.66475 3.72725C2.55926 3.83274 2.5 3.97582 2.5 4.125C2.5 4.27418 2.55926 4.41726 2.66475 4.52275C2.77024 4.62824 2.91332 4.6875 3.0625 4.6875H10.9375C11.0867 4.6875 11.2298 4.62824 11.3352 4.52275C11.4407 4.41726 11.5 4.27418 11.5 4.125C11.5 3.97582 11.4407 3.83274 11.3352 3.72725C11.2298 3.62176 11.0867 3.5625 10.9375 3.5625H3.0625ZM2.6875 0.75C2.04103 0.75 1.42105 1.00681 0.963927 1.46393C0.506807 1.92105 0.25 2.54103 0.25 3.1875V11.8125C0.25 12.459 0.506807 13.079 0.963927 13.5361C1.42105 13.9932 2.04103 14.25 2.6875 14.25H11.3125C11.959 14.25 12.579 13.9932 13.0361 13.5361C13.4932 13.079 13.75 12.459 13.75 11.8125V3.1875C13.75 2.54103 13.4932 1.92105 13.0361 1.46393C12.579 1.00681 11.959 0.75 11.3125 0.75H2.6875ZM1.375 3.1875C1.375 2.463 1.963 1.875 2.6875 1.875H11.3125C12.037 1.875 12.625 2.463 12.625 3.1875V11.8125C12.625 12.1606 12.4867 12.4944 12.2406 12.7406C11.9944 12.9867 11.6606 13.125 11.3125 13.125H2.6875C2.3394 13.125 2.00556 12.9867 1.75942 12.7406C1.51328 12.4944 1.375 12.1606 1.375 11.8125V3.1875Z" fill="url(#paint0_linear_5177_95332)"/>
<defs>
<linearGradient id="paint0_linear_5177_95332" x1="14.6158" y1="-4.44303" x2="3.82491" y2="16.847" gradientUnits="userSpaceOnUse">
<stop stop-color="#CE1B69"/>
<stop offset="1" stop-color="#FF328B" stop-opacity="0.71"/>
</linearGradient>
</defs>
</svg>
